<svg width="48" height="48" viewBox="0 0 48 48" fill="none" xmlns="http://www.w3.org/2000/svg">
<path d="M28 26C26.3333 26 24.9167 25.4167 23.75 24.25C22.5833 23.0833 22 21.6667 22 20C22 18.3333 22.5833 16.9167 23.75 15.75C24.9167 14.5833 26.3333 14 28 14C29.6667 14 31.0833 14.5833 32.25 15.75C33.4167 16.9167 34 18.3333 34 20C34 21.6667 33.4167 23.0833 32.25 24.25C31.0833 25.4167 29.6667 26 28 26ZM14 32C12.9 32 11.9583 31.6083 11.175 30.825C10.3917 30.0417 10 29.1 10 28V12C10 10.9 10.3917 9.95833 11.175 9.175C11.9583 8.39167 12.9 8 14 8H42C43.1 8 44.0417 8.39167 44.825 9.175C45.6083 9.95833 46 10.9 46 12V28C46 29.1 45.6083 30.0417 44.825 30.825C44.0417 31.6083 43.1 32 42 32H14ZM18 28H38C38 26.9 38.3917 25.9583 39.175 25.175C39.9583 24.3917 40.9 24 42 24V16C40.9 16 39.9583 15.6083 39.175 14.825C38.3917 14.0417 38 13.1 38 12H18C18 13.1 17.6083 14.0417 16.825 14.825C16.0417 15.6083 15.1 16 14 16V24C15.1 24 16.0417 24.3917 16.825 25.175C17.6083 25.9583 18 26.9 18 28ZM40 40H6C4.9 40 3.95833 39.6083 3.175 38.825C2.39167 38.0417 2 37.1 2 36V14H6V36H40V40Z" fill="white"/>
</svg>
