<svg width="58" height="58" viewBox="0 0 58 58" fill="none" xmlns="http://www.w3.org/2000/svg">
<g clip-path="url(#clip0_1698_2236)">
<path d="M13.0901 36.6602L14.8579 34.8925L18.9827 35.4817L25.4645 28.9999L12.5008 21.9288L14.8579 19.5718L30.7678 23.6966L37.2496 17.2148C37.7406 16.7238 38.3299 16.4782 39.0173 16.4782C39.7048 16.4782 40.2941 16.7238 40.7851 17.2148C41.2762 17.7058 41.5217 18.2951 41.5217 18.9826C41.5217 19.67 41.2762 20.2593 40.7851 20.7503L34.3033 27.2321L38.4281 43.142L36.0711 45.4991L29 32.5354L22.5182 39.0173L23.1074 43.142L21.3397 44.9098L18.3934 39.6065L13.0901 36.6602Z" fill="white"/>
</g>
<defs>
<clipPath id="clip0_1698_2236">
<rect width="40" height="40" fill="white" transform="translate(29 0.71875) rotate(45)"/>
</clipPath>
</defs>
</svg>
