<svg width="48" height="48" viewBox="0 0 48 48" fill="none" xmlns="http://www.w3.org/2000/svg">
<path d="M28 44V37.85L39.05 26.85C39.35 26.55 39.6833 26.3333 40.05 26.2C40.4167 26.0667 40.7833 26 41.15 26C41.55 26 41.9333 26.075 42.3 26.225C42.6667 26.375 43 26.6 43.3 26.9L45.15 28.75C45.4167 29.05 45.625 29.3833 45.775 29.75C45.925 30.1167 46 30.4833 46 30.85C46 31.2167 45.9333 31.5917 45.8 31.975C45.6667 32.3583 45.45 32.7 45.15 33L34.15 44H28ZM31 41H32.9L38.95 34.9L38.05 33.95L37.1 33.05L31 39.1V41ZM12 44C10.9 44 9.95833 43.6083 9.175 42.825C8.39167 42.0417 8 41.1 8 40V8C8 6.9 8.39167 5.95833 9.175 5.175C9.95833 4.39167 10.9 4 12 4H28L40 16V22H36V18H26V8H12V40H24V44H12ZM38.05 33.95L37.1 33.05L38.95 34.9L38.05 33.95Z" fill="white"/>
</svg>
