<svg width="37" height="36" viewBox="0 0 37 36" fill="none" xmlns="http://www.w3.org/2000/svg">
<g id="family_restroom_black_36dp 1" clip-path="url(#clip0_2124_4370)">
<g id="Group">
<path id="Vector" d="M24.5781 6C24.5781 4.335 25.9131 3 27.5781 3C29.2431 3 30.5781 4.335 30.5781 6C30.5781 7.665 29.2431 9 27.5781 9C25.9131 9 24.5781 7.665 24.5781 6ZM30.5781 33V24H34.3281L30.5181 12.555C30.0981 11.325 28.9581 10.5 27.6681 10.5H27.4881C26.1981 10.5 25.0431 11.325 24.6381 12.555L23.3481 16.425C24.9681 17.325 26.0781 19.02 26.0781 21V33H30.5781ZM19.3281 17.25C20.5731 17.25 21.5781 16.245 21.5781 15C21.5781 13.755 20.5731 12.75 19.3281 12.75C18.0831 12.75 17.0781 13.755 17.0781 15C17.0781 16.245 18.0831 17.25 19.3281 17.25ZM8.82812 9C10.4931 9 11.8281 7.665 11.8281 6C11.8281 4.335 10.4931 3 8.82812 3C7.16313 3 5.82812 4.335 5.82812 6C5.82812 7.665 7.16313 9 8.82812 9ZM11.8281 33V22.5H14.0781V13.5C14.0781 11.85 12.7281 10.5 11.0781 10.5H6.57812C4.92812 10.5 3.57812 11.85 3.57812 13.5V22.5H5.82812V33H11.8281ZM21.5781 33V27H23.0781V21C23.0781 19.77 22.0581 18.75 20.8281 18.75H17.8281C16.5981 18.75 15.5781 19.77 15.5781 21V27H17.0781V33H21.5781Z" fill="#FFBF01"/>
</g>
</g>
<defs>
<clipPath id="clip0_2124_4370">
<rect width="36" height="36" fill="white" transform="translate(0.578125)"/>
</clipPath>
</defs>
</svg>
