<svg width="97" height="97" viewBox="0 0 97 97" fill="none" xmlns="http://www.w3.org/2000/svg">
<path d="M96.5469 48.4645C96.5469 21.804 74.9343 0.191406 48.2738 0.191406C21.6133 0.191406 0.000671387 21.804 0.000671387 48.4645V96.7376H48.2738C74.9342 96.7376 96.5469 75.125 96.5469 48.4645Z" fill="#FFBF01"/>
<g clip-path="url(#clip0_882_2012)">
<path d="M25.8142 80.7707C24.782 80.4347 23.7708 80.0692 22.9502 79.3071C22.0641 78.4846 21.5046 77.4842 21.2039 76.3258C20.8388 74.9191 20.4687 73.5136 20.1098 72.1056C19.9439 71.4585 20.1779 70.9571 20.6915 70.8089C21.2484 70.6483 21.7324 70.9459 21.918 71.6265C22.2881 72.9887 22.626 74.3608 22.9836 75.7268C23.4886 77.6584 24.7944 78.8452 26.6595 78.8724C27.5024 78.8848 28.3551 78.6155 29.1955 78.4401C30.5396 78.1586 31.8812 77.8609 33.2191 77.5485C35.5645 77.0013 37.0101 74.4707 36.1895 72.2539C34.3207 67.2038 32.4109 62.1686 30.5173 57.1271C30.4888 57.053 30.4505 56.9826 30.3973 56.8715C28.4752 57.4161 26.5667 57.9558 24.6582 58.4993C24.0072 58.6845 23.3537 58.8599 22.7101 59.0674C20.46 59.796 19.3771 61.7499 19.9501 64.0384C20.2237 65.1302 20.5145 66.2182 20.793 67.3088C20.9687 67.9979 20.7447 68.5154 20.2125 68.6673C19.6556 68.8254 19.1778 68.5327 19.0046 67.8374C18.6221 66.3109 18.0986 64.7905 17.955 63.2381C17.6939 60.4148 19.4736 58.0744 22.3054 57.2296C24.8389 56.4738 27.4083 55.8279 29.9195 55.0078C31.1349 54.6114 32.2637 53.9445 33.4097 53.3566C33.557 53.2812 33.6362 52.9453 33.6375 52.7292C33.6536 50.2233 33.6511 47.7174 33.6461 45.2115C33.6424 43.5652 34.2241 42.2363 35.7514 41.4694C36.1784 41.2545 36.6821 41.1235 37.1586 41.0927C38.1215 41.0322 39.0931 41.026 40.0572 41.0741C42.186 41.1791 43.6675 42.7328 43.7108 44.8719C43.7306 45.85 43.7145 46.8294 43.7145 47.9064C44.2455 47.6272 44.717 47.4247 45.1292 47.1382C45.2777 47.0344 45.3482 46.7294 45.3495 46.5157C45.3631 43.6603 45.3495 40.8061 45.3631 37.9507C45.3718 36.1488 46.0785 34.731 47.7357 33.8801C49.7754 32.8328 53.122 33.3898 54.4711 34.9953C55.2112 35.8759 55.4414 36.9195 55.4414 38.0335C55.4426 44.1333 55.4414 50.2344 55.4414 56.3342C55.4414 56.5763 55.4414 56.8196 55.4414 57.0518C55.5429 57.0679 55.5837 57.0839 55.6209 57.079C56.5912 56.9341 57.0764 56.3701 57.0764 55.387C57.0764 46.617 57.0751 37.8458 57.0764 29.0758C57.0764 26.7922 58.2373 25.0767 60.3475 24.6976C62.1099 24.3802 63.9615 24.2073 65.5469 25.4559C66.6633 26.3352 67.1163 27.5258 67.151 28.9016C67.1708 29.6612 67.1646 30.422 67.151 31.1815C67.1386 31.9497 66.7883 32.382 66.2054 32.3869C65.6212 32.3918 65.2561 31.9559 65.2437 31.1976C65.2301 30.3763 65.2548 29.5537 65.235 28.7324C65.2016 27.3603 64.2622 26.4402 62.8822 26.4118C62.3476 26.4007 61.8117 26.397 61.277 26.4143C60.0121 26.455 59.1123 27.3084 59.0022 28.5571C58.9836 28.7608 58.9786 28.9671 58.9786 29.1721C58.9786 37.8816 58.9786 46.5898 58.9786 55.2993V56.0354C59.324 55.8551 59.6024 55.7451 59.8401 55.5784C61.5567 54.3767 63.2721 53.175 64.9628 51.9388C65.141 51.8091 65.2289 51.4522 65.2301 51.2002C65.2449 46.0649 65.24 40.9309 65.2449 35.7956C65.2449 35.5313 65.266 35.2608 65.3266 35.0052C65.4368 34.5445 65.7982 34.2506 66.2239 34.3469C66.542 34.4185 66.8527 34.7347 67.0569 35.0212C67.1906 35.209 67.1522 35.535 67.1522 35.7993C67.1571 40.3801 67.1559 44.9596 67.1559 49.5403C67.1559 49.7836 67.1559 50.0257 67.1559 50.2406C67.969 49.9429 68.7265 49.5527 69.531 49.3933C71.7315 48.9549 73.7799 50.2715 74.4841 52.476C74.5584 52.7069 74.6425 52.9342 74.7217 53.1627V54.5187C74.3616 55.8118 73.5819 56.7912 72.5435 57.631C69.4604 60.1233 66.4121 62.6576 63.3414 65.166C62.0419 66.2281 60.6124 67.0667 58.97 67.478C55.1951 68.4252 51.4153 69.3565 47.6367 70.2864C44.5363 71.0497 41.4348 71.8018 38.3059 72.5651C38.3059 72.754 38.2874 72.9171 38.3084 73.0727C38.6921 75.8676 36.8579 78.4414 34.3949 79.1651C33.2946 79.4887 32.1795 79.7604 31.0644 80.0321C29.9777 80.2964 28.8824 80.5286 27.7907 80.7744H25.8142V80.7707ZM32.177 56.1836C34.0125 61.0681 35.8368 65.9255 37.6623 70.7842C44.0202 69.2292 50.2828 67.6484 56.5714 66.1849C59.0343 65.6118 61.1928 64.6102 63.1075 62.9503C65.4665 60.9039 67.9307 58.9772 70.3392 56.9851C70.9865 56.4503 71.6523 55.918 72.2056 55.2919C72.8863 54.5212 73.0063 53.5838 72.5336 52.6501C72.0533 51.7004 71.2711 51.0878 70.1696 51.1977C69.5879 51.2558 68.9617 51.4769 68.4777 51.8041C65.8749 53.5665 63.3266 55.4104 60.7262 57.1765C59.173 58.2325 57.4279 58.8759 55.5429 58.9426C52.9945 59.0328 50.4412 59.0143 47.8904 59.0365C47.7283 59.0377 47.5661 58.9834 47.404 58.9661C46.5488 58.8698 46.0042 58.3548 45.7505 57.5915C45.4968 56.827 45.6354 56.0786 46.2542 55.5031C46.7196 55.0696 47.2134 54.6632 47.7159 54.2742C49.1924 53.1293 50.0836 51.6312 50.4697 49.8182C50.6591 48.9277 50.1232 48.02 49.2543 47.7298C48.6033 47.5112 48.0501 47.7483 47.4956 48.0422C42.5808 50.6494 37.6648 53.2528 32.7501 55.8588C32.5718 55.9526 32.3986 56.0576 32.1795 56.1823L32.177 56.1836ZM47.2741 46.0081C47.4993 45.9562 47.6565 45.9204 47.8137 45.8821C50.1813 45.3078 52.4005 47.0332 52.3633 49.46C52.3411 50.8902 51.7853 52.1685 51.0675 53.3825C50.2952 54.6892 49.0984 55.5722 47.9436 56.496C47.7605 56.643 47.5377 56.7406 47.3322 56.8616L47.5129 57.079H53.5045C53.5144 56.8826 53.528 56.7393 53.528 56.5973C53.528 50.3764 53.5292 44.1556 53.528 37.9347C53.528 37.7507 53.5156 37.5654 53.4983 37.3814C53.403 36.3748 52.6938 35.556 51.6938 35.3979C51.1096 35.3053 50.5068 35.3065 49.9128 35.3078C48.1887 35.3102 47.2802 36.2106 47.2753 37.9162C47.2691 40.2775 47.2741 42.6389 47.2741 44.9991C47.2741 45.3239 47.2741 45.6487 47.2741 46.0093V46.0081ZM35.5645 52.2327C37.6463 51.131 39.6203 50.0899 41.587 49.0327C41.7033 48.9697 41.8246 48.7832 41.8246 48.6548C41.8246 47.2802 41.8556 45.9031 41.7652 44.5335C41.7033 43.5862 40.9149 42.9477 39.9669 42.9267C39.103 42.9069 38.2391 42.9045 37.3752 42.9279C36.4148 42.9539 35.5893 43.6838 35.5756 44.6138C35.541 47.1147 35.5633 49.6169 35.5633 52.2315L35.5645 52.2327Z" fill="black"/>
<path d="M49.4306 27.3009C47.3773 29.2708 45.3475 31.2197 43.3177 33.1674C42.9316 33.5379 42.564 33.9281 42.158 34.2739C41.1704 35.1138 40.0713 35.283 38.8943 34.7087C38.0638 34.3036 37.2346 33.8936 36.4351 33.4329C36.0254 33.197 35.7903 33.239 35.4536 33.5799C31.2332 37.8506 27.0053 42.1127 22.7465 46.344C22.2576 46.8293 21.614 47.2566 20.9643 47.4629C19.8813 47.8062 18.6127 47.1912 17.984 46.2167C17.3639 45.2546 17.3924 43.9665 18.0669 43.0328C18.2228 42.8179 18.4085 42.6216 18.5966 42.4326C23.3777 37.6184 28.1613 32.8067 32.9449 27.9963C34.3224 26.6106 35.3546 26.4525 37.0873 27.3479C37.8349 27.7344 38.575 28.1346 39.3349 28.494C39.4958 28.5706 39.809 28.5804 39.9166 28.4779C41.6506 26.8403 43.3623 25.1804 45.0765 23.5217C45.0987 23.5007 45.0913 23.4476 45.1037 23.3649C44.272 23.3315 43.4836 23.1648 42.8722 22.5436C42.0046 21.663 41.9204 20.5972 42.2979 19.5165C42.6791 18.4235 43.5244 17.7109 44.6977 17.685C47.3513 17.6244 50.0073 17.638 52.6609 17.6763C54.0928 17.6973 55.1845 18.8249 55.1993 20.2575C55.2265 22.8659 55.2241 25.4743 55.2018 28.0827C55.1894 29.4721 54.1634 30.5565 52.7215 30.7924C51.4232 31.0048 50.2536 30.3058 49.7969 28.9818C49.6187 28.468 49.558 27.9135 49.4281 27.3009H49.4306ZM53.3589 24.1664C53.3589 22.9758 53.3663 21.784 53.3564 20.5935C53.3502 19.8574 53.073 19.5227 52.3861 19.5177C49.959 19.4992 47.5307 19.4992 45.1024 19.5153C44.4292 19.519 43.9799 19.9574 43.9836 20.5095C43.9885 21.0714 44.4366 21.4679 45.1148 21.4815C45.8141 21.495 46.5146 21.495 47.2127 21.4815C47.73 21.4716 48.209 21.5111 48.4503 22.0669C48.6979 22.6362 48.3575 22.9931 47.9899 23.3464C45.5728 25.667 43.1519 27.9827 40.7483 30.3169C40.2644 30.7874 39.7892 30.8739 39.1963 30.5577C38.1468 29.997 37.0861 29.4561 36.0254 28.9164C35.2147 28.5039 35.0712 28.5298 34.4189 29.1856C29.6205 34.0084 24.8221 38.8312 20.0249 43.6553C19.312 44.3728 19.2241 44.9162 19.7365 45.4004C20.1944 45.8326 20.7477 45.7128 21.4247 45.0323C25.8592 40.5726 30.2925 36.1117 34.7283 31.652C35.4115 30.9653 35.6504 30.9295 36.5143 31.3741C37.445 31.852 38.3733 32.3349 39.304 32.8141C40.2954 33.3242 40.4649 33.2983 41.2496 32.5461C44.0232 29.8846 46.7968 27.2244 49.5692 24.5616C49.9231 24.2208 50.2821 23.9268 50.8192 24.1714C51.344 24.4097 51.3935 24.8605 51.3848 25.357C51.3712 26.1375 51.3749 26.9181 51.3836 27.6974C51.3923 28.4903 51.7462 28.9151 52.3799 28.9102C53.0086 28.9052 53.354 28.4816 53.3589 27.6801C53.3651 26.5093 53.3601 25.3397 53.3601 24.1689L53.3589 24.1664Z" fill="black"/>
<path d="M25.4297 72.9774C25.4285 70.9729 27.0572 69.3303 29.0573 69.3179C31.0413 69.3056 32.7133 70.9605 32.727 72.9489C32.7406 74.9719 31.0747 76.638 29.056 76.6219C27.0325 76.6059 25.4322 74.9979 25.4309 72.9774H25.4297ZM29.0474 74.7397C30.0276 74.7496 30.8259 73.9901 30.8568 73.0181C30.8878 72.0486 30.0511 71.2038 29.0647 71.2088C28.0944 71.2125 27.2998 72.0041 27.2936 72.9699C27.2887 73.9333 28.0783 74.7299 29.0461 74.7385L29.0474 74.7397Z" fill="black"/>
</g>
<path d="M96.55 48.275C96.55 21.6134 74.9366 0 48.275 0C21.6135 0 4.57764e-05 21.6135 4.57764e-05 48.275V96.55H48.2751C74.9366 96.55 96.55 74.9366 96.55 48.275Z" fill="#FFBF01"/>
<g clip-path="url(#clip1_882_2012)">
<path d="M62.2696 75.7546H33.9094C33.3945 75.4092 33.2058 74.9475 33.2474 74.3153C33.402 71.9847 35.1153 69.9483 37.4235 69.477C37.8671 69.3864 38.0537 69.202 38.1848 68.7797C38.8384 66.6677 40.6786 65.2379 42.9005 65.0759C43.3728 65.0418 43.8462 65.0322 44.3483 65.0098V64.3232C44.3483 59.4028 44.3483 54.4813 44.3483 49.561C44.3483 43.326 44.3483 37.09 44.3441 30.855C44.3441 30.6514 44.3462 30.3849 44.2289 30.2548C43.537 29.4882 43.0732 28.6075 42.8365 27.6491C41.0272 27.6491 39.2542 27.6245 37.4822 27.6597C36.6623 27.6757 35.9075 28.0148 35.3157 28.5692C34.3007 29.5181 33.194 30.2804 31.8421 30.6535C31.8166 30.661 31.8027 30.7079 31.7718 30.7516C33.0533 36.3661 34.3349 41.9922 35.6366 47.6142C35.6676 47.7464 35.9181 47.9116 36.0716 47.9159C36.9949 47.9436 37.9182 47.9265 38.8426 47.9308C39.6582 47.934 40.09 48.3765 40.0794 49.1846C40.0378 52.4066 37.3052 55.282 34.079 55.3844C31.7014 55.4601 29.3175 55.4537 26.9388 55.3951C24.2532 55.329 21.9705 53.5634 21.1154 51.0088C20.9992 50.6613 20.9022 50.3062 20.7966 49.9544C20.7966 49.5279 20.7966 49.1015 20.7966 48.675C21.0781 48.0897 21.5451 47.8946 22.1848 47.9191C23.1582 47.9575 24.1348 47.9287 25.1562 47.9287C26.4623 42.2172 27.764 36.5239 29.068 30.8209C27.1137 30.516 25.8226 29.5276 25.2479 27.7002C25.1381 27.3505 25.089 26.971 25.0762 26.6031C25.0538 25.9624 25.4899 25.4815 26.071 25.44C26.6638 25.3973 27.1233 25.8099 27.2054 26.4571C27.36 27.6746 27.9325 28.4711 28.9347 28.5937C30.5627 28.7931 32.1311 28.6278 33.3881 27.3836C34.7592 26.0274 36.4181 25.408 38.3394 25.4304C39.8288 25.4485 41.3193 25.4336 42.7736 25.4336C42.8205 25.3898 42.8386 25.3803 42.8429 25.3675C42.8813 25.2491 42.9154 25.1308 42.9527 25.0124C43.5572 23.105 44.8366 21.8917 46.7451 21.3256C46.9114 21.2766 47.0745 21.2201 47.2398 21.1667C47.808 21.1667 48.3774 21.1667 48.9456 21.1667C49.4745 21.3587 50.0289 21.4983 50.5257 21.7521C52.0354 22.5208 52.9448 23.7831 53.3596 25.4389C55.0132 25.4389 56.6476 25.4176 58.2799 25.4453C59.8824 25.4719 61.3345 25.9976 62.4849 27.1128C63.6332 28.2259 64.9382 28.7152 66.5246 28.6513C68.0258 28.5905 68.7871 27.9721 68.9747 26.4891C69.06 25.8174 69.4843 25.4144 70.0814 25.4389C70.6859 25.4645 71.1294 25.957 71.1113 26.6277C71.0846 27.6587 70.7211 28.566 70.0398 29.3421C69.2807 30.2079 68.3062 30.6631 67.111 30.8092C68.4192 36.5313 69.72 42.2193 71.026 47.9276C72.0442 47.9276 73.0208 47.9564 73.9953 47.918C74.6361 47.8924 75.103 48.0886 75.3856 48.6739V49.9533C75.3483 50.0482 75.2971 50.141 75.2768 50.2391C74.6489 53.2073 72.2031 55.3268 69.1922 55.3972C66.7954 55.4526 64.3944 55.4526 61.9987 55.378C58.8674 55.2799 56.0772 52.2733 56.1028 49.1302C56.1092 48.3786 56.54 47.9351 57.2863 47.9297C58.1925 47.9233 59.0988 47.9105 60.0039 47.9361C60.3771 47.9468 60.5104 47.8359 60.5946 47.4606C61.5254 43.3335 62.4828 39.2127 63.4296 35.0888C63.7654 33.6271 64.0895 32.1622 64.4339 30.6343C62.9306 30.3337 61.8506 29.3986 60.7321 28.4849C60.2353 28.0787 59.538 27.7376 58.9133 27.7034C57.0752 27.6011 55.2275 27.6672 53.5035 27.6672C53.0365 28.47 52.5685 29.2515 52.1282 30.0479C51.9917 30.2942 51.8467 30.5821 51.8456 30.8518C51.8318 42.0445 51.8339 53.2361 51.8339 64.4287C51.8339 64.6164 51.8339 64.804 51.8339 65.0428C52.1868 65.0428 52.4683 65.0375 52.7497 65.0428C55.3203 65.094 57.3001 66.5024 58.0113 68.8309C58.1318 69.2254 58.3162 69.3853 58.7064 69.4653C60.8633 69.911 62.5094 71.6179 62.8773 73.7865C63.0031 74.5296 63.0649 75.2812 62.2717 75.7546H62.2696ZM49.6632 65.0087V31.7741H46.5105V65.0087H49.6632ZM60.5498 73.6116C60.166 72.3301 58.9506 71.4878 57.523 71.4878C51.2336 71.4857 44.9432 71.4857 38.6539 71.4921C38.3383 71.4921 38.0142 71.5337 37.7082 71.6126C36.689 71.8759 35.7625 72.796 35.6708 73.6127H60.5488L60.5498 73.6116ZM33.4787 47.9105C32.4701 43.503 31.4722 39.1424 30.4743 34.7817C30.4423 34.7785 30.4113 34.7753 30.3794 34.7732C29.3804 39.1413 28.3814 43.5094 27.3738 47.9105H33.4777H33.4787ZM68.8052 47.9105C67.7934 43.4902 66.7965 39.1317 65.7986 34.7721C65.7677 34.7753 65.7357 34.7785 65.7048 34.7807C64.7058 39.1498 63.7057 43.5179 62.7014 47.9095H68.8052V47.9105ZM37.7263 50.0845H23.1347C23.1465 50.1975 23.1401 50.2881 23.1657 50.3691C23.6604 51.9503 25.3001 53.2329 26.9548 53.2542C29.2641 53.284 31.5735 53.284 33.8828 53.2542C35.6633 53.2307 37.3436 51.8255 37.7253 50.0845H37.7263ZM73.0261 50.0877H58.4591C58.796 51.8245 60.552 53.2467 62.3922 53.2595C64.6301 53.2755 66.869 53.267 69.1069 53.2585C69.3873 53.2574 69.673 53.2105 69.9481 53.1508C71.4621 52.8235 72.8566 51.4417 73.0261 50.0887V50.0877ZM48.1023 29.7057C49.8604 29.7025 51.2859 28.2824 51.2912 26.5285C51.2965 24.764 49.8306 23.2927 48.0767 23.3023C46.3367 23.3119 44.8931 24.7608 44.8889 26.5019C44.8846 28.2834 46.3143 29.7089 48.1034 29.7057H48.1023ZM40.3278 69.3096H55.8512C55.5399 68.1752 54.3575 67.2338 53.1527 67.2263C49.7772 67.2061 46.4018 67.2061 43.0263 67.2263C41.8226 67.2338 40.6327 68.1806 40.3278 69.3096Z" fill="black"/>
</g>
<defs>
<clipPath id="clip0_882_2012">
<rect width="57.1851" height="63.1264" fill="white" transform="translate(17.5352 17.644)"/>
</clipPath>
<clipPath id="clip1_882_2012">
<rect width="54.5879" height="54.5879" fill="white" transform="translate(20.7954 21.1667)"/>
</clipPath>
</defs>
</svg>
