<svg width="147" height="52" viewBox="0 0 147 52" fill="none" xmlns="http://www.w3.org/2000/svg">
<path d="M46.8828 37.8846C46.8828 41.9359 46.8728 45.9872 46.8952 50.0385C46.8977 50.5916 46.7518 50.803 46.1333 50.7701C45.2218 50.722 44.3053 50.7584 43.3913 50.7572C42.841 50.7572 42.565 50.5063 42.5633 50.0045C42.5633 48.3018 42.5496 46.599 42.5708 44.8963C42.5771 44.4313 42.4399 44.2105 41.9099 44.2246C41.0171 44.2481 40.1231 44.2457 39.229 44.2246C38.7377 44.2129 38.5968 44.3996 38.603 44.8517C38.6267 46.6319 38.6006 48.4133 38.6218 50.1947C38.6267 50.628 38.4921 50.7795 38.0207 50.7666C37.0032 50.7372 35.9832 50.7337 34.967 50.7678C34.4632 50.7842 34.3323 50.6233 34.336 50.1642C34.3547 47.0136 34.346 43.8629 34.346 40.7111C34.346 36.2101 34.3335 31.709 34.356 27.2068C34.361 26.3119 34.4433 25.4089 34.5804 24.5235C34.8797 22.6023 35.7775 21.7463 37.7913 21.5103C39.7116 21.286 41.6431 21.2684 43.5609 21.5807C45.5373 21.9025 46.5224 22.8689 46.7144 24.7419C46.8142 25.7131 46.869 26.6912 46.8753 27.6671C46.894 31.0725 46.8828 34.478 46.8828 37.8834V37.8846ZM38.6155 33.481H38.613C38.613 35.7697 38.6255 38.0572 38.603 40.3459C38.5993 40.791 38.7689 40.9331 39.2091 40.926C40.0607 40.9131 40.9124 40.899 41.7628 40.9319C42.3701 40.9554 42.582 40.7757 42.5771 40.1674C42.5484 36.0022 42.5658 31.8358 42.5571 27.6706C42.5571 27.1645 42.5396 26.6466 42.4224 26.1569C42.3464 25.8422 42.1481 25.4383 41.875 25.3009C41.0508 24.8852 40.1355 24.8957 39.2964 25.2645C38.5756 25.5815 38.6218 26.2861 38.6193 26.9108C38.6093 29.1009 38.6155 31.2921 38.6155 33.4822V33.481Z" fill="#FFBF01"/>
<path d="M112.975 37.9001C112.975 41.9314 112.975 45.9639 112.975 49.9953C112.975 50.7609 112.973 50.7609 112.151 50.7621C111.175 50.7621 110.197 50.7445 109.221 50.7703C108.782 50.782 108.645 50.64 108.648 50.2313C108.666 48.4699 108.637 46.7084 108.667 44.947C108.676 44.4186 108.515 44.2025 107.934 44.2248C107.083 44.2577 106.229 44.2506 105.379 44.2271C104.881 44.2142 104.688 44.3622 104.695 44.8636C104.724 46.6438 104.693 48.4252 104.717 50.2066C104.723 50.6505 104.567 50.782 104.107 50.7703C103.089 50.7433 102.071 50.7445 101.052 50.7703C100.608 50.7809 100.43 50.6787 100.43 50.2196C100.443 42.3518 100.432 34.484 100.452 26.6151C100.455 25.8189 100.566 25.0145 100.709 24.2266C101.008 22.5837 102 21.7253 103.895 21.5128C105.816 21.2967 107.747 21.2756 109.666 21.5868C111.631 21.9062 112.619 22.8773 112.809 24.7574C112.908 25.7285 112.963 26.7079 112.969 27.6825C112.988 31.088 112.976 34.4934 112.976 37.8989L112.975 37.9001ZM104.708 33.4225H104.705C104.705 35.73 104.717 38.0374 104.695 40.3449C104.692 40.7829 104.846 40.938 105.295 40.9297C106.146 40.9145 106.999 40.9027 107.849 40.9344C108.449 40.9567 108.674 40.7935 108.671 40.1758C108.641 35.9907 108.658 31.8055 108.65 27.6203C108.65 27.1341 108.633 26.6351 108.516 26.1653C108.438 25.8495 108.244 25.4478 107.972 25.3081C107.149 24.8854 106.234 24.9006 105.394 25.2658C104.672 25.5794 104.714 26.2839 104.712 26.9087C104.702 29.0799 104.708 31.25 104.708 33.4213V33.4225Z" fill="#FFBF01"/>
<path d="M21.5255 31.3491C22.8198 31.3491 24.0206 31.3585 25.2189 31.335C25.3361 31.3326 25.5045 31.1436 25.5481 31.0109C25.608 30.8324 25.5755 30.6233 25.5755 30.4284C25.5755 27.7475 25.588 25.0666 25.5668 22.3857C25.5631 21.8854 25.6977 21.6893 26.2638 21.7128C27.2589 21.7539 28.259 21.7539 29.2553 21.7128C29.8226 21.6893 30.0109 21.8948 29.9498 22.3904C29.9373 22.4867 29.9498 22.5853 29.9498 22.6839C29.9498 31.7636 29.9498 40.8432 29.9498 49.9229C29.9498 50.4795 29.6543 50.7578 29.0632 50.7578C28.1492 50.7578 27.2327 50.7214 26.3212 50.7707C25.6952 50.8047 25.5618 50.5805 25.5643 50.0344C25.5843 45.2797 25.5755 40.5238 25.5755 35.7691C25.5755 35.573 25.6242 35.3557 25.5493 35.189C25.4795 35.0316 25.28 34.8203 25.1316 34.8167C24.073 34.785 23.0118 34.7827 21.9544 34.8191C21.8073 34.8238 21.6215 35.0645 21.5404 35.2324C21.4706 35.3792 21.5242 35.5789 21.5242 35.755C21.5242 40.5496 21.5167 45.3431 21.5342 50.1377C21.5354 50.6227 21.392 50.7883 20.8683 50.7707C19.8309 50.7366 18.7909 50.7449 17.7522 50.7683C17.3145 50.7777 17.125 50.6861 17.125 50.2223C17.1375 40.9078 17.1375 31.5933 17.125 22.2788C17.125 21.8314 17.2809 21.7081 17.7372 21.7187C18.7959 21.7445 19.8571 21.7527 20.9157 21.7163C21.4394 21.6987 21.5367 21.8937 21.5342 22.334C21.5167 25.0736 21.5242 27.8133 21.5242 30.5529C21.5242 30.7854 21.5242 31.0179 21.5242 31.3514L21.5255 31.3491Z" fill="#FFBF01"/>
<path d="M0.180664 42.9157C0.180664 41.9175 0.201862 40.9194 0.170688 39.9224C0.156972 39.4738 0.281666 39.2883 0.792912 39.3036C1.81042 39.3341 2.82917 39.3294 3.84667 39.3047C4.3043 39.2942 4.46266 39.4292 4.45768 39.8731C4.43523 41.712 4.4477 43.5521 4.45144 45.3911C4.45144 45.6647 4.44645 45.9418 4.48885 46.2107C4.62975 47.1009 5.03252 47.4238 5.98643 47.4449C8.00024 47.4884 8.36809 47.1889 8.38056 45.2795C8.39178 43.3255 8.3232 41.3715 8.29327 39.4163C8.28205 38.7152 7.88427 38.2314 7.28824 37.8932C5.98892 37.1593 4.70457 36.3937 3.35538 35.749C0.99367 34.6228 -0.194666 32.9483 0.0260427 30.3825C0.179417 28.594 0.0759205 26.7856 0.203109 24.9936C0.254233 24.2773 0.518585 23.5351 0.860247 22.8858C1.33034 21.9886 2.27802 21.6751 3.2843 21.5482C5.33178 21.2899 7.38425 21.2523 9.42175 21.5753C11.2984 21.8723 12.2797 22.8177 12.4094 24.5885C12.5553 26.5754 12.5416 28.5729 12.604 30.5645C12.6152 30.9168 12.4568 31.0471 12.084 31.0412C11.0241 31.026 9.96418 31.0213 8.90552 31.0436C8.46784 31.053 8.39677 30.8604 8.39178 30.5081C8.37183 29.0813 8.35687 27.6546 8.2808 26.2301C8.2409 25.4763 7.91171 25.1733 7.13112 25.0805C6.64107 25.023 6.13107 25.023 5.64103 25.077C4.87416 25.1615 4.48262 25.5526 4.46516 26.2889C4.43024 27.8131 4.45518 29.3385 4.43773 30.8627C4.429 31.6072 4.78687 32.1368 5.4465 32.4962C6.1822 32.8978 6.94408 33.2583 7.67354 33.6693C8.84691 34.3304 10.0153 35.0033 11.165 35.7008C12.1039 36.2704 12.6202 37.1546 12.6501 38.1621C12.7324 40.8971 12.7249 43.6343 12.7187 46.3705C12.7174 47.0304 12.6414 47.7009 12.4967 48.3468C12.1239 50.0025 11.2248 50.7482 9.22848 50.9678C7.26704 51.1839 5.29438 51.2191 3.33418 50.895C1.58347 50.605 0.633304 49.7442 0.441275 48.0626C0.246752 46.3564 0.19438 44.636 0.0809082 42.9216C0.114576 42.9192 0.148243 42.918 0.181911 42.9157H0.180664Z" fill="#FFBF01"/>
<path d="M133.861 39.854C133.851 39.4477 133.99 39.2974 134.428 39.3056C135.467 39.3267 136.505 39.3291 137.544 39.3044C138.01 39.2927 138.15 39.45 138.145 39.8822C138.124 41.7012 138.136 43.5213 138.138 45.3415C138.138 45.5951 138.131 45.8523 138.161 46.1036C138.274 47.0794 138.695 47.4305 139.747 47.4458C141.673 47.4728 142.046 47.1828 142.064 45.3884C142.085 43.4144 142.013 41.4405 141.988 39.4665C141.979 38.7455 141.588 38.2382 140.968 37.8894C139.669 37.1566 138.383 36.391 137.034 35.7463C134.67 34.6178 133.494 32.9351 133.713 30.3739C133.867 28.5855 133.79 26.7794 133.881 24.9839C133.909 24.412 134.095 23.8284 134.31 23.2871C134.691 22.3265 135.508 21.7887 136.55 21.6184C138.732 21.2626 140.932 21.2367 143.117 21.5761C144.966 21.8638 145.948 22.788 146.088 24.5377C146.248 26.5422 146.225 28.5608 146.289 30.5724C146.3 30.9341 146.123 31.0444 145.759 31.0397C144.72 31.0257 143.682 31.0186 142.643 31.0433C142.199 31.0538 142.078 30.8988 142.074 30.4984C142.062 29.0716 142.041 27.6449 141.965 26.2204C141.925 25.4759 141.587 25.1671 140.806 25.0779C140.316 25.0215 139.806 25.0215 139.316 25.0779C138.553 25.1659 138.165 25.5593 138.149 26.298C138.116 27.8421 138.138 29.3863 138.128 30.9305C138.124 31.6022 138.444 32.1025 139.037 32.4348C139.804 32.8646 140.602 33.2415 141.367 33.6737C142.541 34.336 143.708 35.0089 144.857 35.7076C145.796 36.2783 146.306 37.1649 146.336 38.1724C146.417 40.9073 146.402 43.6446 146.407 46.3807C146.407 46.8669 146.35 47.3566 146.268 47.8368C145.912 49.9142 145.155 50.6786 142.965 50.9546C141.007 51.2012 139.03 51.2247 137.071 50.9006C135.251 50.5999 134.319 49.758 134.125 48.0529C133.93 46.3467 133.882 40.8709 133.858 39.854H133.861Z" fill="#FFBF01"/>
<path d="M129.658 47.8802C129.41 49.9059 128.526 50.7009 126.334 50.9651C124.374 51.1999 122.4 51.2176 120.44 50.897C118.73 50.6175 117.811 49.7873 117.547 48.1855C117.397 47.2813 117.312 46.3607 117.294 45.4459C117.255 43.6269 117.306 41.8056 117.267 39.9866C117.255 39.4218 117.461 39.2844 118.014 39.3044C118.968 39.3384 119.926 39.3349 120.881 39.3044C121.386 39.2879 121.568 39.4277 121.561 39.9291C121.532 41.768 121.548 43.6081 121.553 45.4471C121.553 45.7207 121.553 45.9978 121.602 46.2656C121.758 47.124 122.148 47.4258 123.083 47.4457C125.101 47.4904 125.471 47.1897 125.482 45.285C125.493 43.331 125.425 41.3758 125.396 39.4218C125.386 38.7219 124.99 38.2346 124.394 37.8976C123.096 37.1624 121.81 36.398 120.461 35.7533C118.103 34.6248 116.906 32.955 117.128 30.3879C117.282 28.5995 117.206 26.7934 117.292 24.9979C117.319 24.4437 117.486 23.8777 117.69 23.3528C118.072 22.3734 118.881 21.7968 119.952 21.6219C122.134 21.266 124.334 21.2332 126.518 21.5749C128.366 21.8638 129.33 22.7269 129.49 24.4683C129.676 26.5093 129.65 28.5678 129.682 30.6193C129.684 30.7555 129.406 31.0115 129.252 31.0162C128.152 31.0514 127.05 31.0244 125.949 31.0409C125.517 31.0479 125.501 30.8166 125.495 30.5124C125.469 29.0857 125.457 27.6589 125.381 26.2345C125.34 25.4771 125.013 25.1729 124.235 25.0813C123.745 25.0226 123.235 25.0226 122.745 25.0766C121.976 25.1612 121.581 25.551 121.566 26.285C121.533 27.8879 121.544 29.4908 121.556 31.0937C121.559 31.6949 121.916 32.1318 122.441 32.4277C123.207 32.8587 124.006 33.2368 124.77 33.6689C125.961 34.3418 127.152 35.017 128.31 35.738C129.303 36.3557 129.739 37.3092 129.774 38.3931C129.82 39.8375 129.869 46.1751 129.661 47.8802H129.658Z" fill="#FFBF01"/>
<path d="M88.489 39.7197C88.489 40.0791 88.489 40.3304 88.489 40.5828C88.489 43.7323 88.4703 46.8829 88.5052 50.0324C88.5114 50.6465 88.3119 50.8027 87.6934 50.771C86.7408 50.7229 85.7819 50.7299 84.828 50.7698C84.2656 50.7933 84.081 50.6477 84.086 50.0911C84.1135 46.7068 84.0998 43.3225 84.0998 39.937C84.0998 34.1266 84.0998 28.3162 84.0998 22.5058C84.0998 21.7272 84.0998 21.7178 84.8965 21.7284C87.5326 21.7613 90.1686 21.7942 92.8047 21.8458C93.2349 21.854 93.6725 21.928 94.0903 22.029C95.7686 22.4341 96.6565 23.471 96.7101 25.3065C96.8024 28.4724 96.8211 31.6406 96.8323 34.8077C96.8348 35.5052 96.7176 36.2109 96.5841 36.9003C96.2525 38.6124 95.0404 39.506 92.9855 39.607C92.2398 39.6434 91.4941 39.6974 90.7484 39.7174C90.0265 39.7362 89.3045 39.7209 88.489 39.7209V39.7197ZM88.5202 36.4047C89.0788 36.4047 89.5726 36.4047 90.0664 36.4047C92.074 36.4047 92.4331 36.083 92.443 34.2029C92.4555 31.9154 92.4518 29.6279 92.4405 27.3403C92.4393 26.9716 92.3894 26.5994 92.3184 26.2365C92.2273 25.7727 91.9343 25.4392 91.4156 25.3957C90.6749 25.3323 89.9267 25.337 89.186 25.2771C88.6474 25.2337 88.4715 25.4004 88.4753 25.9288C88.5002 29.2133 88.4865 32.4978 88.4877 35.7823C88.4877 35.9561 88.504 36.1287 88.5189 36.4059L88.5202 36.4047Z" fill="#FFBF01"/>
<path d="M51.3016 36.2665C51.3016 31.6468 51.3103 27.0283 51.2891 22.4086C51.2866 21.8755 51.4263 21.6864 52.0161 21.7134C53.0111 21.7592 54.0124 21.7557 55.0075 21.7134C55.5711 21.69 55.7033 21.8755 55.702 22.3816C55.6871 30.348 55.6921 38.3144 55.6921 46.2808C55.6921 46.8915 56.0175 47.1972 56.6684 47.198C57.666 47.198 58.6648 47.2238 59.6611 47.1874C60.1948 47.1686 60.3394 47.3518 60.3182 47.8285C60.282 48.6294 60.2945 49.4338 60.3145 50.2358C60.3232 50.5964 60.2309 50.7678 59.7982 50.7655C57.1385 50.7514 54.4775 50.7467 51.8178 50.7678C51.2542 50.7725 51.3003 50.4695 51.3016 50.1231C51.3041 45.5034 51.3041 40.8849 51.3028 36.2653L51.3016 36.2665Z" fill="#FFBF01"/>
<path d="M63.7847 36.1842C63.7847 31.5845 63.7922 26.9848 63.7735 22.3839C63.771 21.8813 63.8932 21.6887 64.463 21.7134C65.4581 21.7568 66.4594 21.7568 67.4545 21.7134C68.0368 21.6875 68.1889 21.8637 68.1864 22.405C68.1677 28.9235 68.1739 35.4409 68.1739 41.9594C68.1739 43.5059 68.1914 45.0524 68.164 46.5978C68.1552 47.0628 68.3136 47.2155 68.8024 47.2049C69.9446 47.1803 71.0893 47.212 72.2315 47.1908C72.6704 47.1826 72.8126 47.3271 72.7988 47.7345C72.7714 48.5753 72.7739 49.4185 72.7988 50.2593C72.8101 50.6468 72.6604 50.7666 72.2564 50.7642C69.6166 50.7513 66.9769 50.7454 64.3383 50.7677C63.8184 50.7724 63.7797 50.5434 63.781 50.1583C63.7897 45.4999 63.7859 40.8414 63.7872 36.1818L63.7847 36.1842Z" fill="#FFBF01"/>
<path d="M32.1589 18.3521V0.0859375H35.2837C36.2039 3.94466 37.1229 7.80104 38.0419 11.6586C38.0731 11.6551 38.1055 11.6527 38.1367 11.6492V0.108249H40.6106V18.338H37.5731C36.6242 14.6483 35.6628 10.9117 34.7014 7.17514C34.659 7.18219 34.6166 7.18806 34.5729 7.19511V18.3509H32.1564L32.1589 18.3521Z" fill="white"/>
<path d="M129.121 8.27759C130.488 8.63927 130.747 9.64799 130.764 10.7225C130.803 13.2073 130.779 15.6921 130.777 18.1769C130.777 18.2309 130.741 18.2849 130.712 18.3624H127.92C127.91 18.1522 127.891 17.9444 127.891 17.7377C127.889 15.4878 127.895 13.2366 127.888 10.9867C127.883 9.41666 127.785 9.33445 126.116 9.3462C125.952 9.3462 125.79 9.3462 125.543 9.3462V18.3589H122.695V0C124.783 0.0692833 126.854 0.0775033 128.913 0.230161C129.971 0.308839 130.569 1.078 130.636 2.0421C130.736 3.46299 130.749 4.89328 130.715 6.31652C130.692 7.25596 130.185 7.94761 129.12 8.27759H129.121ZM125.577 2.48128V7.20546C126.105 7.20546 126.58 7.22895 127.052 7.19959C127.555 7.16906 127.848 6.90837 127.854 6.40694C127.863 5.7235 127.886 5.04007 127.888 4.35545C127.89 2.39673 127.788 2.30866 125.696 2.43431C125.677 2.43431 125.658 2.4484 125.577 2.48246V2.48128Z" fill="white"/>
<path d="M146.568 18.3725H143.75V14.4199H141.398V18.3584H138.581V17.7278C138.581 13.1716 138.57 8.61416 138.591 4.0579C138.595 3.24177 138.677 2.41741 138.816 1.61185C138.968 0.724084 139.596 0.142809 140.538 0.0876171C141.876 0.0101137 143.231 -0.00984924 144.564 0.09936C145.794 0.200349 146.408 1.01413 146.52 2.37984C146.568 2.96464 146.597 3.55178 146.597 4.13775C146.603 8.69401 146.6 13.2514 146.599 17.8077C146.599 17.9803 146.58 18.1529 146.568 18.3725ZM143.729 12.1276V11.4066C143.729 9.2929 143.732 7.17917 143.726 5.06427C143.725 4.39962 143.72 3.73262 143.669 3.07032C143.653 2.8613 143.502 2.50784 143.367 2.4867C142.853 2.40919 142.288 2.33991 141.808 2.47613C141.593 2.53719 141.425 3.08676 141.422 3.41674C141.389 6.19629 141.399 8.97584 141.401 11.7554C141.401 11.8822 141.439 12.0102 141.459 12.1276H143.73H143.729Z" fill="white"/>
<path d="M24.069 9.24411C24.069 11.1793 24.0777 13.1158 24.0628 15.051C24.059 15.5771 24.0104 16.1055 23.9281 16.6257C23.7672 17.6462 23.1488 18.2909 22.054 18.3613C20.716 18.4471 19.363 18.4529 18.0263 18.366C16.853 18.2897 16.2594 17.6532 16.1035 16.5529C16.03 16.0315 15.9776 15.5031 15.9764 14.977C15.9664 11.1253 15.9664 7.27365 15.9764 3.42079C15.9776 2.89588 16.0287 2.36628 16.1073 1.84607C16.2669 0.78568 16.8704 0.151562 18.0101 0.0787553C19.3481 -0.00696809 20.701 -0.00461949 22.0377 0.0811039C23.1625 0.15391 23.7785 0.804469 23.9331 1.86133C24.0092 2.38272 24.0578 2.91115 24.0615 3.43606C24.0765 5.3713 24.0678 7.3077 24.0665 9.24294L24.069 9.24411ZM18.8319 9.2218H18.8294C18.8294 11.1594 18.8131 13.097 18.8456 15.0346C18.8506 15.3551 18.9952 15.8847 19.2022 15.947C19.6823 16.0914 20.2733 16.1126 20.7509 15.9728C20.9803 15.9059 21.1761 15.3645 21.1786 15.0369C21.2073 11.1418 21.206 7.24664 21.1898 3.35268C21.1861 2.52129 20.8756 2.28525 19.9903 2.30052C19.1236 2.31578 18.8418 2.56239 18.8356 3.40905C18.8206 5.34663 18.8306 7.28422 18.8306 9.2218H18.8319Z" fill="white"/>
<path d="M114.607 9.23143C114.607 11.1667 114.616 13.1031 114.601 15.0383C114.597 15.5644 114.548 16.0928 114.468 16.613C114.311 17.6382 113.693 18.2911 112.606 18.3592C111.248 18.4449 109.874 18.4449 108.516 18.3616C107.438 18.2958 106.838 17.6816 106.661 16.6812C106.572 16.1821 106.519 15.6713 106.517 15.1663C106.506 11.1972 106.502 7.22809 106.521 3.25898C106.524 2.67888 106.613 2.09056 106.737 1.51985C106.919 0.677883 107.534 0.141231 108.413 0.0930848C109.834 0.0155815 111.268 0.00501286 112.688 0.0954334C113.718 0.161194 114.323 0.844632 114.473 1.84865C114.55 2.37004 114.599 2.89847 114.602 3.42338C114.617 5.35861 114.609 7.29502 114.609 9.23026L114.607 9.23143ZM109.369 9.28075C109.369 11.1984 109.353 13.1172 109.385 15.0348C109.39 15.3542 109.536 15.885 109.742 15.9472C110.223 16.0905 110.813 16.1116 111.291 15.9731C111.52 15.9061 111.716 15.3648 111.718 15.0371C111.747 11.142 111.744 7.24805 111.73 3.35292C111.726 2.53796 111.434 2.30545 110.591 2.29958C109.688 2.29371 109.382 2.55088 109.375 3.40929C109.36 5.36684 109.37 7.32321 109.369 9.28075Z" fill="white"/>
<path d="M64.7355 0.0859375H67.5673C67.5673 0.32197 67.5673 0.547435 67.5673 0.772899C67.5673 5.25283 67.5673 9.73158 67.5673 14.2115C67.5673 14.4663 67.5673 14.72 67.5748 14.9748C67.6035 15.9671 67.919 16.2278 68.9514 16.1491C69.535 16.1045 69.8829 15.8696 69.8904 15.2801C69.8941 14.9478 69.9378 14.6166 69.9378 14.2855C69.9415 9.80556 69.9403 5.32681 69.9403 0.846879V0.108249H72.6698C72.6811 0.271476 72.7035 0.4394 72.7035 0.608498C72.7035 5.382 72.7122 10.1543 72.6935 14.9278C72.691 15.5678 72.6037 16.2137 72.4778 16.8431C72.2958 17.7567 71.6548 18.3192 70.686 18.372C69.3879 18.4425 68.0773 18.4601 66.7805 18.3756C65.6583 18.3016 65.0622 17.7109 64.874 16.6728C64.7692 16.0986 64.7206 15.5079 64.7193 14.9243C64.7069 10.132 64.7118 5.33973 64.7131 0.54626C64.7131 0.412391 64.7256 0.277347 64.7355 0.0859375Z" fill="white"/>
<path d="M48.923 11.0999H51.6101C51.6101 12.0875 51.6089 13.041 51.6101 13.9946C51.6101 14.4056 51.6101 14.8166 51.6276 15.2276C51.6575 15.9298 51.8982 16.1329 52.6837 16.1529C53.5653 16.1752 53.8746 15.9779 53.8945 15.2569C53.9294 13.9664 53.902 12.6758 53.9157 11.3853C53.9219 10.8568 53.6701 10.4916 53.2012 10.238C52.3209 9.76006 51.4493 9.26685 50.5552 8.8124C49.3033 8.17711 48.6424 7.25177 48.7259 5.87315C48.8082 4.50862 48.7646 3.1347 48.9117 1.77839C49.0277 0.703908 49.6512 0.154339 50.7934 0.0791844C52.0702 -0.00536474 53.3621 -0.00653903 54.6389 0.081533C55.8148 0.162559 56.4632 0.769669 56.5817 1.88055C56.7251 3.23568 56.7326 4.60374 56.8011 6.01289H53.9781C53.9668 5.83557 53.9481 5.64768 53.9456 5.45979C53.9369 4.79515 53.9519 4.12932 53.9257 3.46467C53.8858 2.43599 52.988 1.94748 52.0066 2.43834C51.8271 2.52876 51.6513 2.79767 51.6438 2.99026C51.6051 4.00602 51.5665 5.02648 51.6513 6.03755C51.6774 6.35108 52.0303 6.72803 52.3421 6.91592C53.2848 7.48193 54.2811 7.96809 55.2562 8.48595C56.2363 9.00616 56.8074 9.76123 56.7949 10.8557C56.7725 12.7122 56.8161 14.5723 56.7089 16.4242C56.6353 17.6889 55.9881 18.2819 54.6078 18.3993C53.4169 18.5003 52.2012 18.498 51.0103 18.3958C49.6823 18.2819 49.0314 17.7018 48.9529 16.4418C48.8444 14.6921 48.9254 12.9318 48.9254 11.1023L48.923 11.0999Z" fill="white"/>
<path d="M8.16559 7.81397H5.34625C5.34625 6.63263 5.34874 5.48417 5.345 4.33571C5.34376 3.94467 5.34874 3.55128 5.3051 3.16376C5.22779 2.46389 4.92104 2.26543 4.05068 2.30301C3.29503 2.33589 3.00948 2.56722 3.00449 3.25771C2.98828 5.60512 2.99452 7.95253 2.99327 10.2999C2.99327 11.8653 2.98704 13.4294 2.99701 14.9948C3.00325 16.0058 4.02823 16.5507 4.93102 15.9894C5.14175 15.859 5.28889 15.5009 5.29762 15.2414C5.34376 13.8933 5.33628 12.5428 5.3475 11.1936C5.34874 10.9646 5.3475 10.7356 5.3475 10.4749H7.99476C8.03466 10.5278 8.0783 10.5583 8.07706 10.5876C8.05087 12.5017 8.06708 14.4182 7.97356 16.3299C7.90996 17.6534 7.31268 18.2722 5.90613 18.385C4.6143 18.4895 3.29752 18.4472 2.00195 18.3474C1.02809 18.2722 0.444519 17.6217 0.283663 16.6646C0.196377 16.1456 0.144006 15.6148 0.142759 15.0899C0.131536 11.1771 0.126549 7.26557 0.1465 3.35283C0.148994 2.75276 0.243761 2.14565 0.370949 1.55616C0.556744 0.691878 1.19268 0.155226 2.09298 0.0941625C3.3898 0.00609047 4.70283 -0.0173954 5.99715 0.0730252C7.19921 0.1564 7.86508 0.758812 7.94488 1.85795C8.08703 3.82137 8.09825 5.79301 8.16683 7.81397H8.16559Z" fill="white"/>
<path d="M92.4689 0.09375H99.5041V2.26502H97.4517V18.3528H94.5974V2.29907H92.4701V0.09375H92.4689Z" fill="white"/>
<path d="M80.9142 0.0859375H83.7073V16.0117H86.6015V18.3568H80.9142V0.0859375Z" fill="white"/>
</svg>
