<svg width="63" height="72" viewBox="0 0 63 72" fill="none" xmlns="http://www.w3.org/2000/svg">
<g clip-path="url(#clip0_2124_4315)">
<path d="M4.9025 4.71875C4.61767 4.71875 4.38281 4.95363 4.38281 5.23849V53.7297C4.38281 54.0145 4.61767 54.2494 4.9025 54.2494H20.1933L31.3117 66.5334L42.43 54.2494H57.7208C58.0057 54.2494 58.2405 54.0145 58.2405 53.7297V5.23849C58.2405 4.95363 58.0057 4.71875 57.7208 4.71875H4.9025Z" fill="white"/>
<path d="M31.3093 71.2812C30.6147 71.2812 29.9551 70.9864 29.4904 70.4716L18.422 58.2377H4.9001C2.4116 58.2377 0.382812 56.2087 0.382812 53.7199V5.22872C0.382812 2.73994 2.4116 0.710938 4.9001 0.710938H57.7234C60.212 0.710938 62.2407 2.73994 62.2407 5.22872V53.7199C62.2407 56.2087 60.212 58.2377 57.7234 58.2377H44.2016L33.1282 70.4716C32.6635 70.9864 31.9989 71.2812 31.3093 71.2812ZM4.9001 4.70897C4.61528 4.70897 4.38042 4.94386 4.38042 5.22872V53.7199C4.38042 54.0047 4.61528 54.2396 4.9001 54.2396H20.1909L31.3093 66.5236L42.4276 54.2396H57.7184C58.0033 54.2396 58.2381 54.0047 58.2381 53.7199V5.22872C58.2381 4.94386 58.0033 4.70897 57.7184 4.70897H4.9001Z" fill="black"/>
<path d="M15.0286 25.5799C13.8493 25.5799 13.2096 25.0002 13.1897 24.1007H10.5312C10.6112 25.8198 11.8904 27.559 14.9886 27.559C17.567 27.559 19.2061 26.3795 19.2061 24.4005C19.2061 22.5614 17.8069 21.7618 16.1679 21.422L14.4089 21.0821C13.7693 20.9422 13.3296 20.6424 13.3296 20.1026C13.3296 19.5029 13.8892 19.1431 14.8287 19.1431C16.028 19.1431 16.6076 19.7228 16.6276 20.6224H19.286C19.226 18.9032 17.9468 17.1641 14.8687 17.1641C12.2902 17.1641 10.6512 18.3635 10.6512 20.3225C10.6512 22.1616 12.0703 22.9412 13.7093 23.2811L15.4683 23.6409C16.1279 23.7808 16.5476 24.0807 16.5476 24.6004C16.5476 25.2201 15.988 25.5799 15.0286 25.5799Z" fill="black" stroke="black" stroke-width="0.435619" stroke-miterlimit="10"/>
<path d="M23.4987 21.7624C23.4987 20.1032 24.3182 19.3835 25.5175 19.3835C26.7168 19.3835 27.3364 20.0432 27.3364 21.2626V27.3596H30.0148V20.9628C30.0148 18.384 28.5157 17.1646 26.6368 17.1646C25.0578 17.1646 24.0983 18.0242 23.4987 19.1037V13.2266H20.8203V27.3596H23.4987V21.7624Z" fill="black" stroke="black" stroke-width="0.435619" stroke-miterlimit="10"/>
<path d="M34.3905 21.8018C32.8314 22.2016 31.4922 23.1211 31.4922 24.8403C31.4922 26.3595 32.5516 27.559 34.5903 27.559C36.1094 27.559 37.1288 26.8993 37.7285 25.7199V27.3591H40.3469V21.1621C40.3469 18.6433 38.8278 17.1641 36.0894 17.1641C33.5909 17.1641 31.732 18.4035 31.5322 20.8622H34.2505C34.2705 19.7428 34.9101 19.2031 36.0095 19.2031C37.0289 19.2031 37.6685 19.6828 37.6685 20.8423V20.9822L34.3905 21.8018ZM37.6685 23.461C37.6685 24.8003 36.889 25.6599 35.6097 25.6599C34.7502 25.6599 34.1706 25.2601 34.1706 24.5005C34.1706 23.8808 34.5903 23.421 35.5098 23.2011L37.6685 22.6814V23.461Z" fill="black" stroke="black" stroke-width="0.435619" stroke-miterlimit="10"/>
<path d="M45.5813 25.1807H44.7018V13.2266H42.0234V27.3596H45.5813V25.1807Z" fill="black" stroke="black" stroke-width="0.435619" stroke-miterlimit="10"/>
<path d="M50.2688 25.1807H49.3893V13.2266H46.7109V27.3596H50.2688V25.1807Z" fill="black" stroke="black" stroke-width="0.435619" stroke-miterlimit="10"/>
<path d="M16.5665 32.1484C15.1474 32.1484 14.008 32.8681 13.3684 34.0675V32.3483H10.75V46.3415H13.4284V40.7242C14.088 41.8637 15.1873 42.5433 16.5665 42.5433C18.8052 42.5433 20.704 40.8242 20.704 37.3459C20.704 33.8676 18.8052 32.1484 16.5665 32.1484ZM17.9207 37.5858C17.9207 39.4049 17.0612 40.4044 15.6621 40.4044C14.2629 40.4044 13.4234 39.4049 13.4234 37.7857V36.9461C13.4234 35.2269 14.2629 34.1674 15.6621 34.1674C17.0612 34.1674 17.9207 35.2069 17.9207 37.146V37.5858Z" fill="black" stroke="black" stroke-width="0.435619" stroke-miterlimit="10"/>
<path d="M26.5191 32.1484C24.0206 32.1484 22.1617 33.3878 21.9619 35.8466H24.6802C24.7002 34.7272 25.3398 34.1874 26.4392 34.1874C27.4586 34.1874 28.0982 34.6672 28.0982 35.8266V35.9666L24.8201 36.7862C23.2611 37.186 21.9219 38.1055 21.9219 39.8247C21.9219 41.3439 22.9812 42.5433 25.02 42.5433C26.5391 42.5433 27.5585 41.8837 28.1581 40.7042V42.3434H30.7766V36.1465C30.7766 33.6277 29.2575 32.1484 26.5191 32.1484ZM28.0982 38.4453C28.0982 39.7847 27.3186 40.6443 26.0394 40.6443C25.1799 40.6443 24.6003 40.2445 24.6003 39.4848C24.6003 38.8651 25.02 38.4054 25.9395 38.1855L28.0982 37.6657V38.4453Z" fill="black" stroke="black" stroke-width="0.435619" stroke-miterlimit="10"/>
<path d="M36.5396 34.1275C37.7389 34.1275 38.3185 34.7072 38.3385 35.6067H40.9969C40.937 33.8876 39.6577 32.1484 36.5796 32.1484C34.0011 32.1484 32.3621 33.3478 32.3621 35.3069C32.3621 37.146 33.7813 37.9256 35.4203 38.2654L37.1792 38.6253C37.8388 38.7652 38.2586 39.065 38.2586 39.5848C38.2586 40.2045 37.6989 40.5643 36.7395 40.5643C35.5602 40.5643 34.9206 39.9846 34.9006 39.085H32.2422C32.3221 40.8042 33.6014 42.5433 36.6995 42.5433C39.278 42.5433 40.917 41.3639 40.917 39.3849C40.917 37.5458 39.5178 36.7462 37.8788 36.4063L36.1199 36.0665C35.4802 35.9266 35.0405 35.6267 35.0405 35.087C35.0405 34.4873 35.6002 34.1275 36.5396 34.1275Z" fill="black" stroke="black" stroke-width="0.435619" stroke-miterlimit="10"/>
<path d="M47.9413 36.4063L46.1824 36.0665C45.5427 35.9266 45.103 35.6267 45.103 35.087C45.103 34.4873 45.6627 34.1275 46.6021 34.1275C47.8014 34.1275 48.381 34.7072 48.401 35.6067H51.0594C50.9995 33.8876 49.7202 32.1484 46.6421 32.1484C44.0636 32.1484 42.4246 33.3478 42.4246 35.3069C42.4246 37.146 43.8438 37.9256 45.4828 38.2654L47.2417 38.6253C47.9013 38.7652 48.3211 39.065 48.3211 39.5848C48.3211 40.2045 47.7614 40.5643 46.802 40.5643C45.6227 40.5643 44.9831 39.9846 44.9631 39.085H42.3047C42.3846 40.8042 43.6639 42.5433 46.762 42.5433C49.3405 42.5433 50.9795 41.3639 50.9795 39.3849C50.9795 37.5458 49.5803 36.7462 47.9413 36.4063Z" fill="black" stroke="black" stroke-width="0.435619" stroke-miterlimit="10"/>
</g>
<defs>
<clipPath id="clip0_2124_4315">
<rect width="61.8579" height="70.5703" fill="white" transform="translate(0.382812 0.71875)"/>
</clipPath>
</defs>
</svg>
