<svg width="412" height="143" viewBox="0 0 412 143" fill="none" xmlns="http://www.w3.org/2000/svg">
<g clip-path="url(#clip0_882_1926)">
<path d="M131.941 105.927C131.941 117.256 131.913 128.585 131.976 139.913C131.983 141.46 131.574 142.051 129.84 141.959C127.285 141.824 124.715 141.926 122.153 141.923C120.61 141.923 119.836 141.221 119.832 139.818C119.832 135.057 119.793 130.296 119.853 125.534C119.87 124.234 119.486 123.617 118 123.656C115.497 123.722 112.99 123.715 110.484 123.656C109.106 123.623 108.711 124.145 108.729 125.409C108.795 130.387 108.722 135.369 108.781 140.35C108.795 141.562 108.418 141.985 107.096 141.949C104.244 141.867 101.384 141.857 98.5348 141.952C97.1224 141.998 96.7554 141.549 96.7658 140.265C96.8183 131.455 96.7938 122.645 96.7938 113.831C96.7938 101.245 96.7588 88.6587 96.8218 76.0692C96.8357 73.567 97.0665 71.0419 97.451 68.566C98.29 63.194 100.807 60.8002 106.453 60.1402C111.837 59.513 117.252 59.4637 122.628 60.3372C128.169 61.2369 130.931 63.9393 131.469 69.1768C131.749 71.8924 131.903 74.6277 131.92 77.3564C131.973 86.879 131.941 96.4016 131.941 105.924V105.927ZM108.764 93.6138H108.757C108.757 100.014 108.792 106.41 108.729 112.81C108.718 114.055 109.194 114.452 110.428 114.432C112.815 114.396 115.203 114.357 117.587 114.449C119.29 114.514 119.884 114.012 119.87 112.311C119.79 100.664 119.839 89.0134 119.814 77.3662C119.814 75.951 119.765 74.5029 119.437 73.1336C119.223 72.2536 118.668 71.124 117.902 70.7398C115.591 69.5774 113.025 69.6069 110.672 70.638C108.652 71.5246 108.781 73.4948 108.774 75.2417C108.746 81.3657 108.764 87.493 108.764 93.6171V93.6138Z" fill="#FFBF01"/>
<path d="M317.242 105.957C317.242 117.229 317.242 128.506 317.242 139.778C317.242 141.919 317.235 141.919 314.932 141.923C312.194 141.923 309.454 141.873 306.716 141.946C305.486 141.978 305.101 141.581 305.112 140.438C305.161 135.513 305.08 130.587 305.164 125.662C305.189 124.184 304.738 123.58 303.109 123.642C300.724 123.734 298.33 123.715 295.945 123.649C294.551 123.613 294.009 124.027 294.03 125.429C294.11 130.407 294.023 135.388 294.089 140.369C294.107 141.611 293.67 141.978 292.38 141.946C289.527 141.87 286.671 141.873 283.815 141.946C282.57 141.975 282.07 141.689 282.07 140.406C282.109 118.405 282.077 96.4045 282.133 74.4007C282.14 72.1744 282.451 69.9251 282.853 67.7218C283.692 63.1279 286.472 60.7276 291.785 60.1332C297.173 59.529 302.584 59.4699 307.964 60.3401C313.474 61.2332 316.243 63.9488 316.777 69.206C317.054 71.9215 317.207 74.6601 317.225 77.3856C317.277 86.9082 317.246 96.4308 317.246 105.953L317.242 105.957ZM294.065 93.4361H294.058C294.058 99.8885 294.089 106.341 294.03 112.793C294.019 114.018 294.453 114.451 295.711 114.428C298.095 114.386 300.487 114.353 302.871 114.442C304.552 114.504 305.185 114.048 305.175 112.32C305.091 100.617 305.14 88.9145 305.115 77.2115C305.115 75.8521 305.07 74.4565 304.741 73.1431C304.521 72.2598 303.979 71.1368 303.217 70.746C300.91 69.5639 298.344 69.6066 295.987 70.6278C293.963 71.5045 294.082 73.4747 294.075 75.2216C294.047 81.2931 294.065 87.3613 294.065 93.4328V93.4361Z" fill="#FFBF01"/>
<path d="M60.8526 87.6499C64.4813 87.6499 67.8478 87.6762 71.2074 87.6105C71.536 87.6039 72.0079 87.0753 72.1303 86.7042C72.2981 86.2051 72.2072 85.6206 72.2072 85.0755C72.2072 77.5789 72.2422 70.0823 72.1827 62.5857C72.1722 61.1869 72.5498 60.6385 74.1369 60.7042C76.9266 60.8191 79.7303 60.8191 82.5235 60.7042C84.1142 60.6385 84.642 61.2132 84.4707 62.5989C84.4358 62.8681 84.4707 63.144 84.4707 63.4198C84.4707 88.809 84.4707 114.198 84.4707 139.588C84.4707 141.144 83.6422 141.922 81.9852 141.922C79.4227 141.922 76.8532 141.82 74.2977 141.958C72.5428 142.054 72.1687 141.426 72.1757 139.899C72.2317 126.604 72.2072 113.305 72.2072 100.01C72.2072 99.4612 72.3435 98.8537 72.1338 98.3875C71.938 97.9475 71.3787 97.3564 70.9627 97.3465C67.9947 97.2579 65.0197 97.2513 62.0552 97.3531C61.6426 97.3662 61.1218 98.0394 60.8945 98.509C60.6988 98.9194 60.8491 99.4776 60.8491 99.9702C60.8491 113.377 60.8281 126.781 60.8771 140.188C60.8805 141.545 60.4785 142.008 59.0103 141.958C56.1017 141.863 53.1861 141.886 50.2741 141.952C49.047 141.978 48.5156 141.722 48.5156 140.425C48.5506 114.379 48.5506 88.3329 48.5156 62.2869C48.5156 61.0359 48.9526 60.6911 50.2321 60.7206C53.2001 60.7929 56.1751 60.8159 59.1431 60.7141C60.6114 60.6648 60.884 61.2099 60.8771 62.4413C60.8281 70.102 60.8491 77.7628 60.8491 85.4236C60.8491 86.0737 60.8491 86.7239 60.8491 87.6565L60.8526 87.6499Z" fill="#FFBF01"/>
<path d="M1.0065 119.994C1.0065 117.203 1.06593 114.412 0.978534 111.624C0.94008 110.37 1.28967 109.851 2.72298 109.894C5.57561 109.979 8.43175 109.966 11.2844 109.897C12.5674 109.868 13.0113 110.245 12.9974 111.486C12.9344 116.629 12.9694 121.774 12.9799 126.916C12.9799 127.681 12.9659 128.456 13.0848 129.208C13.4798 131.697 14.609 132.6 17.2833 132.659C22.9292 132.781 23.9604 131.944 23.9954 126.604C24.0269 121.14 23.8346 115.676 23.7507 110.209C23.7192 108.249 22.604 106.896 20.933 105.95C17.2903 103.898 13.6896 101.757 9.90701 99.9542C3.28581 96.8052 -0.0457581 92.1227 0.573012 84.9479C1.00301 79.9469 0.712848 74.89 1.06943 69.8792C1.21276 67.8761 1.95388 65.8009 2.91176 63.985C4.2297 61.4763 6.88657 60.5995 9.70774 60.2449C15.448 59.5225 21.2022 59.4174 26.9145 60.3204C32.1758 61.1512 34.927 63.7945 35.2906 68.7463C35.6996 74.3023 35.6612 79.8878 35.8359 85.4568C35.8674 86.4419 35.4234 86.8064 34.3782 86.79C31.4067 86.7473 28.4352 86.7342 25.4672 86.7966C24.2401 86.8228 24.0408 86.2843 24.0269 85.2992C23.9709 81.3096 23.929 77.3199 23.7157 73.3369C23.6039 71.2287 22.681 70.3816 20.4925 70.1222C19.1186 69.9613 17.6888 69.9613 16.315 70.1123C14.165 70.3487 13.0673 71.4422 13.0183 73.501C12.9205 77.7632 12.9904 82.0287 12.9414 86.2909C12.917 88.3727 13.9203 89.8537 15.7696 90.8585C17.8322 91.9815 19.9681 92.9895 22.0132 94.1388C25.3029 95.9875 28.5785 97.8691 31.8017 99.8196C34.4341 101.412 35.8814 103.885 35.9653 106.702C36.196 114.35 36.175 122.004 36.1576 129.655C36.1541 131.5 35.9408 133.375 35.5353 135.181C34.49 139.811 31.9695 141.896 26.3726 142.51C20.8736 143.115 15.3431 143.213 9.84758 142.307C4.93937 141.496 2.27551 139.089 1.73714 134.387C1.19178 129.615 1.04496 124.805 0.726831 120.011C0.82122 120.004 0.915609 120.001 1.01 119.994H1.0065Z" fill="#FFBF01"/>
<path d="M375.774 111.434C375.746 110.298 376.138 109.877 377.365 109.9C380.277 109.959 383.189 109.966 386.101 109.897C387.409 109.864 387.8 110.304 387.786 111.513C387.727 116.599 387.762 121.689 387.765 126.778C387.765 127.488 387.748 128.207 387.832 128.909C388.146 131.638 389.328 132.62 392.278 132.663C397.676 132.738 398.721 131.927 398.774 126.91C398.833 121.39 398.63 115.87 398.561 110.35C398.536 108.334 397.438 106.916 395.701 105.94C392.058 103.891 388.454 101.75 384.671 99.9476C378.043 96.792 374.747 92.0865 375.362 84.9249C375.792 79.9239 375.575 74.8736 375.83 69.8529C375.911 68.2537 376.432 66.6218 377.033 65.108C378.103 62.422 380.392 60.9181 383.315 60.4419C389.433 59.447 395.6 59.3747 401.724 60.3237C406.909 61.1282 409.663 63.7124 410.055 68.6051C410.502 74.2103 410.44 79.8549 410.618 85.4798C410.649 86.4912 410.153 86.7998 409.132 86.7867C406.22 86.7473 403.308 86.7276 400.396 86.7966C399.151 86.8261 398.812 86.3927 398.802 85.2729C398.767 81.2833 398.707 77.2937 398.494 73.3106C398.382 71.2287 397.435 70.3651 395.246 70.1156C393.873 69.958 392.443 69.958 391.069 70.1156C388.929 70.3619 387.842 71.4619 387.797 73.5273C387.706 77.8453 387.765 82.1633 387.737 86.4813C387.727 88.3596 388.625 89.7584 390.286 90.6877C392.436 91.8895 394.673 92.9436 396.82 94.152C400.109 96.0039 403.381 97.8855 406.605 99.8392C409.237 101.435 410.667 103.914 410.751 106.732C410.978 114.379 410.936 122.033 410.95 129.684C410.95 131.044 410.789 132.413 410.558 133.756C409.562 139.565 407.44 141.703 401.298 142.474C395.809 143.164 390.268 143.229 384.776 142.323C379.672 141.483 377.061 139.128 376.516 134.36C375.97 129.589 375.834 114.277 375.767 111.434H375.774Z" fill="#FFBF01"/>
<path d="M363.996 133.875C363.301 139.539 360.822 141.762 354.676 142.501C349.181 143.157 343.647 143.207 338.151 142.31C333.359 141.529 330.782 139.207 330.041 134.728C329.621 132.2 329.384 129.625 329.331 127.068C329.223 121.981 329.366 116.888 329.258 111.802C329.223 110.222 329.8 109.838 331.352 109.894C334.026 109.989 336.711 109.979 339.389 109.894C340.805 109.848 341.315 110.239 341.294 111.641C341.214 116.783 341.259 121.929 341.273 127.071C341.273 127.836 341.273 128.611 341.41 129.36C341.847 131.76 342.941 132.604 345.563 132.66C351.219 132.784 352.257 131.944 352.289 126.618C352.32 121.154 352.128 115.686 352.047 110.222C352.02 108.265 350.908 106.903 349.237 105.96C345.598 103.905 341.993 101.767 338.211 99.9642C331.6 96.8086 328.244 92.1392 328.866 84.9612C329.3 79.9602 329.087 74.9099 329.328 69.8892C329.401 68.3393 329.87 66.7566 330.443 65.2888C331.513 62.5502 333.782 60.9379 336.784 60.4487C342.902 59.4537 349.069 59.3618 355.194 60.3173C360.375 61.1251 363.077 63.5386 363.524 68.4083C364.045 74.1153 363.972 79.8715 364.063 85.6081C364.07 85.989 363.29 86.7048 362.857 86.7179C359.773 86.8164 356.683 86.7409 353.596 86.7869C352.387 86.8066 352.341 86.1597 352.324 85.3092C352.25 81.3196 352.219 77.33 352.006 73.3469C351.89 71.2289 350.974 70.3785 348.793 70.1223C347.419 69.9581 345.989 69.9581 344.615 70.1092C342.458 70.3456 341.35 71.4358 341.308 73.4881C341.217 77.9703 341.249 82.4525 341.28 86.9347C341.291 88.6159 342.29 89.8374 343.762 90.6649C345.909 91.87 348.15 92.9273 350.293 94.1357C353.631 96.0173 356.97 97.9053 360.217 99.9215C363 101.649 364.224 104.315 364.322 107.346C364.451 111.385 364.587 129.107 364.003 133.875H363.996Z" fill="#FFBF01"/>
<path d="M248.594 111.056C248.594 112.061 248.594 112.764 248.594 113.47C248.594 122.277 248.542 131.087 248.64 139.894C248.657 141.611 248.098 142.048 246.364 141.959C243.693 141.824 241.005 141.844 238.33 141.956C236.754 142.021 236.236 141.614 236.25 140.058C236.327 130.594 236.289 121.131 236.289 111.664C236.289 95.4164 236.289 79.1689 236.289 62.9213C236.289 60.7443 236.289 60.718 238.523 60.7475C245.913 60.8395 253.303 60.9314 260.693 61.0759C261.9 61.0989 263.127 61.3058 264.298 61.5882C269.003 62.721 271.492 65.6205 271.643 70.7529C271.901 79.6056 271.954 88.4649 271.985 97.3209C271.992 99.2714 271.664 101.245 271.289 103.172C270.36 107.96 266.962 110.459 261.2 110.741C259.11 110.843 257.019 110.994 254.929 111.05C252.905 111.102 250.881 111.06 248.594 111.06V111.056ZM248.682 101.787C250.248 101.787 251.632 101.787 253.017 101.787C258.645 101.787 259.652 100.887 259.68 95.6298C259.715 89.2333 259.704 82.8367 259.673 76.4401C259.669 75.4091 259.529 74.3682 259.33 73.3535C259.075 72.0565 258.253 71.1239 256.799 71.0024C254.723 70.8251 252.625 70.8382 250.548 70.6708C249.038 70.5493 248.545 71.0155 248.556 72.4932C248.626 81.6776 248.587 90.862 248.591 100.046C248.591 100.532 248.636 101.015 248.678 101.79L248.682 101.787Z" fill="#FFBF01"/>
<path d="M144.34 101.395C144.34 88.4776 144.364 75.5629 144.305 62.645C144.298 61.1542 144.689 60.6256 146.343 60.7011C149.133 60.8291 151.94 60.8193 154.729 60.7011C156.31 60.6354 156.68 61.1542 156.677 62.5695C156.635 84.8458 156.649 107.122 156.649 129.398C156.649 131.106 157.561 131.961 159.386 131.963C162.183 131.963 164.983 132.035 167.776 131.933C169.272 131.881 169.678 132.393 169.618 133.726C169.517 135.966 169.552 138.215 169.608 140.458C169.632 141.466 169.374 141.945 168.161 141.939C160.704 141.899 153.244 141.886 145.787 141.945C144.207 141.958 144.336 141.111 144.34 140.143C144.347 127.225 144.347 114.31 144.343 101.392L144.34 101.395Z" fill="#FFBF01"/>
<path d="M179.305 101.165C179.305 88.3033 179.326 75.4412 179.274 62.5759C179.267 61.1705 179.609 60.632 181.207 60.7009C183.996 60.8224 186.804 60.8224 189.593 60.7009C191.226 60.6287 191.652 61.1212 191.645 62.635C191.593 80.8626 191.61 99.0869 191.61 117.314C191.61 121.639 191.659 125.964 191.583 130.285C191.558 131.585 192.002 132.012 193.372 131.983C196.575 131.914 199.784 132.002 202.986 131.943C204.217 131.92 204.615 132.324 204.577 133.463C204.5 135.815 204.507 138.172 204.577 140.523C204.608 141.607 204.189 141.942 203.056 141.935C195.655 141.899 188.254 141.883 180.857 141.945C179.399 141.958 179.291 141.318 179.295 140.241C179.319 127.215 179.308 114.188 179.312 101.159L179.305 101.165Z" fill="#FFBF01"/>
<path d="M90.6515 51.3234V0.246094H99.4122C101.992 11.0362 104.569 21.8197 107.145 32.6065C107.232 32.5967 107.323 32.5901 107.411 32.5803V0.308483H114.347V51.284H105.831C103.17 40.9667 100.475 30.5181 97.7796 20.0695C97.6608 20.0892 97.5419 20.1057 97.4195 20.1254V51.3201H90.6445L90.6515 51.3234Z" fill="white"/>
<path d="M362.495 23.1465C366.326 24.1579 367.053 26.9785 367.102 29.9831C367.211 36.9313 367.144 43.8795 367.137 50.8277C367.137 50.9788 367.036 51.1298 366.955 51.3465H359.128C359.1 50.7588 359.048 50.1776 359.048 49.5996C359.041 43.3082 359.058 37.0134 359.037 30.7219C359.023 26.3316 358.751 26.1018 354.07 26.1346C353.612 26.1346 353.157 26.1346 352.465 26.1346V51.3367H344.48V0C350.333 0.193736 356.139 0.216721 361.911 0.643597C364.879 0.863602 366.553 3.0144 366.742 5.71028C367.022 9.6835 367.06 13.683 366.962 17.6628C366.9 20.2897 365.477 22.2238 362.491 23.1465H362.495ZM352.559 6.93837V20.1485C354.038 20.1485 355.37 20.2142 356.695 20.1321C358.104 20.0467 358.925 19.3178 358.943 17.9156C358.967 16.0045 359.034 14.0935 359.037 12.1791C359.044 6.70194 358.758 6.45567 352.892 6.80702C352.839 6.80702 352.787 6.84642 352.559 6.94165V6.93837Z" fill="white"/>
<path d="M411.407 51.3801H403.507V40.3273H396.913V51.3407H389.016V49.5774C389.016 36.8368 388.985 24.0929 389.044 11.3523C389.055 9.07017 389.285 6.76504 389.673 4.51245C390.1 2.03001 391.862 0.404597 394.501 0.250265C398.252 0.0335438 402.052 -0.0222784 405.789 0.283102C409.236 0.565496 410.96 2.84107 411.274 6.65997C411.407 8.29523 411.488 9.93706 411.488 11.5756C411.505 24.3162 411.498 37.0601 411.495 49.8007C411.495 50.2834 411.442 50.7661 411.407 51.3801ZM403.447 33.9176V31.9014C403.447 25.9909 403.458 20.0803 403.44 14.1664C403.437 12.3079 403.423 10.4427 403.279 8.59076C403.234 8.00626 402.811 7.01788 402.433 6.95878C400.993 6.74206 399.409 6.54832 398.063 6.92922C397.459 7.09998 396.99 8.63673 396.98 9.55943C396.889 17.3319 396.917 25.1043 396.92 32.8767C396.92 33.2313 397.029 33.5892 397.085 33.9176H403.451H403.447Z" fill="white"/>
<path d="M67.9827 25.8587C67.9827 31.2702 68.0071 36.6849 67.9652 42.0964C67.9547 43.5675 67.8184 45.0451 67.5876 46.4998C67.1367 49.3533 65.4027 51.156 62.3333 51.353C58.5822 51.5927 54.7892 51.6091 51.0416 51.3661C47.752 51.1527 46.088 49.373 45.651 46.2962C45.4447 44.8382 45.2979 43.3606 45.2944 41.8895C45.2664 31.1191 45.2664 20.3487 45.2944 9.57504C45.2979 8.10725 45.4412 6.62632 45.6615 5.17166C46.1089 2.20651 47.801 0.43334 50.9962 0.229753C54.7473 -0.00995403 58.5403 -0.0033867 62.2879 0.23632C65.4412 0.439907 67.1681 2.25905 67.6016 5.21434C67.8149 6.67229 67.9512 8.14993 67.9617 9.61773C68.0036 15.0292 67.9792 20.4439 67.9757 25.8554L67.9827 25.8587ZM53.3 25.7963H53.293C53.293 31.2143 53.2475 36.6324 53.3384 42.0504C53.3524 42.9468 53.7579 44.4278 54.3382 44.6018C55.6842 45.0057 57.3412 45.0648 58.6801 44.6741C59.3234 44.4869 59.8722 42.9731 59.8792 42.057C59.9596 31.1651 59.9561 20.2732 59.9107 9.38459C59.9002 7.05976 59.0297 6.39975 56.5476 6.44243C54.118 6.48512 53.3279 7.17469 53.3105 9.5422C53.2685 14.9602 53.2965 20.3783 53.2965 25.7963H53.3Z" fill="white"/>
<path d="M321.805 25.823C321.805 31.2345 321.83 36.6492 321.788 42.0607C321.777 43.5318 321.637 45.0094 321.414 46.4641C320.973 49.3307 319.243 51.1564 316.194 51.3469C312.387 51.5866 308.535 51.5866 304.728 51.3534C301.704 51.1696 300.022 49.4522 299.526 46.6545C299.278 45.259 299.127 43.8306 299.124 42.4186C299.092 31.3199 299.082 20.2211 299.134 9.12233C299.141 7.5002 299.393 5.85509 299.739 4.25923C300.25 1.90485 301.973 0.404217 304.438 0.269587C308.423 0.0528661 312.443 0.0233132 316.425 0.276155C319.313 0.46004 321.008 2.37113 321.428 5.17866C321.644 6.6366 321.781 8.11425 321.791 9.58204C321.833 14.9935 321.809 20.4083 321.809 25.8197L321.805 25.823ZM307.119 25.9609C307.119 31.3231 307.074 36.6886 307.164 42.0508C307.178 42.944 307.587 44.4282 308.164 44.6022C309.514 45.0029 311.167 45.062 312.506 44.6745C313.149 44.4873 313.698 42.9736 313.705 42.0574C313.786 31.1655 313.779 20.2769 313.737 9.38502C313.726 7.10616 312.908 6.456 310.545 6.43958C308.014 6.42316 307.154 7.14228 307.136 9.54264C307.094 15.0165 307.122 20.4871 307.119 25.9609Z" fill="white"/>
<path d="M181.994 0.22998H189.934C189.934 0.889996 189.934 1.52046 189.934 2.15092C189.934 14.6781 189.934 27.2019 189.934 39.7291C189.934 40.4417 189.934 41.1509 189.955 41.8635C190.035 44.6382 190.919 45.3671 193.814 45.1471C195.45 45.0224 196.425 44.3656 196.446 42.7172C196.457 41.7879 196.579 40.862 196.579 39.936C196.59 27.4088 196.586 14.8849 196.586 2.35779V0.29237H204.239C204.27 0.748798 204.333 1.21836 204.333 1.69121C204.333 15.0393 204.358 28.3841 204.305 41.7321C204.298 43.5217 204.053 45.3277 203.7 47.0878C203.19 49.6425 201.393 51.2153 198.677 51.3631C195.038 51.5601 191.363 51.6094 187.728 51.3729C184.581 51.1661 182.91 49.5144 182.382 46.6116C182.089 45.0059 181.952 43.3543 181.949 41.7223C181.914 28.3217 181.928 14.9211 181.931 1.51717C181.931 1.14284 181.966 0.765217 181.994 0.22998Z" fill="white"/>
<path d="M137.65 31.0232H145.184C145.184 33.7847 145.18 36.4511 145.184 39.1174C145.184 40.2667 145.184 41.4159 145.233 42.5652C145.317 44.5289 145.991 45.0969 148.194 45.1527C150.665 45.2151 151.532 44.6635 151.588 42.6473C151.686 39.0386 151.609 35.4298 151.648 31.8211C151.665 30.3435 150.959 29.3222 149.645 28.613C147.177 27.2765 144.733 25.8974 142.226 24.6266C138.717 22.8501 136.864 20.2626 137.098 16.4076C137.329 12.592 137.206 8.75013 137.619 4.9575C137.944 1.95296 139.692 0.416204 142.894 0.20605C146.474 -0.030373 150.096 -0.0336566 153.675 0.212618C156.972 0.43919 158.79 2.13684 159.122 5.24318C159.524 9.03252 159.545 12.858 159.737 16.7984H151.823C151.791 16.3025 151.739 15.7772 151.732 15.2518C151.707 13.3932 151.749 11.5314 151.676 9.67283C151.564 6.79635 149.047 5.43035 146.296 6.80292C145.792 7.05576 145.299 7.80772 145.278 8.34624C145.17 11.1866 145.062 14.0401 145.299 16.8673C145.373 17.7441 146.362 18.7981 147.236 19.3235C149.879 20.9062 152.672 22.2657 155.406 23.7138C158.154 25.1684 159.755 27.2798 159.72 30.3402C159.657 35.5316 159.779 40.7329 159.479 45.9113C159.272 49.4478 157.458 51.106 153.588 51.4344C150.249 51.7168 146.841 51.7102 143.502 51.4245C139.779 51.106 137.954 49.4839 137.734 45.9605C137.43 41.0679 137.657 36.1457 137.657 31.0297L137.65 31.0232Z" fill="white"/>
<path d="M23.3911 21.853H15.4869C15.4869 18.5496 15.4939 15.3382 15.4834 12.1268C15.4799 11.0334 15.4939 9.93333 15.3716 8.84972C15.1548 6.89266 14.2948 6.33773 11.8547 6.4428C9.73622 6.53475 8.93566 7.18163 8.92168 9.11242C8.87623 15.6764 8.89371 22.2405 8.89022 28.8045C8.89022 33.1816 8.87274 37.5555 8.9007 41.9326C8.91818 44.7598 11.7918 46.2834 14.3228 44.7138C14.9136 44.3493 15.3261 43.3478 15.3506 42.6221C15.4799 38.8525 15.459 35.0763 15.4904 31.3034C15.4939 30.6631 15.4904 30.0227 15.4904 29.2938H22.9122C23.0241 29.4415 23.1464 29.5269 23.1429 29.609C23.0695 34.9614 23.115 40.3203 22.8528 45.6661C22.6745 49.3668 20.9999 51.0973 17.0566 51.4125C13.4349 51.7047 9.74321 51.5865 6.11099 51.3074C3.38071 51.0973 1.74464 49.2781 1.29367 46.6019C1.04896 45.1506 0.902133 43.6663 0.898637 42.1985C0.867174 31.2574 0.85319 20.3195 0.909124 9.37839C0.916116 7.70044 1.1818 6.00279 1.53838 4.3544C2.05927 1.93763 3.84217 0.436994 6.36619 0.266244C10.0019 0.0199696 13.6831 -0.0457035 17.3118 0.207138C20.6818 0.440278 22.5486 2.12479 22.7724 5.1983C23.1709 10.6886 23.2023 16.2018 23.3946 21.853H23.3911Z" fill="white"/>
<path d="M259.742 0.259277H279.466V6.33076H273.712V51.3169H265.71V6.42599H259.746V0.259277H259.742Z" fill="white"/>
<path d="M227.363 0.227051H235.194V44.76H243.308V51.3175H227.363V0.227051Z" fill="white"/>
</g>
<defs>
<clipPath id="clip0_882_1926">
<rect width="411" height="143" fill="white" transform="translate(0.5)"/>
</clipPath>
</defs>
</svg>
