<svg width="83" height="55" viewBox="0 0 83 55" fill="none" xmlns="http://www.w3.org/2000/svg">
<path d="M40.1794 4.40858C35.8403 10.0936 31.5591 15.6858 27.2779 21.2781C37.4487 27.3228 40.5728 34.2492 37.5412 43.995C37.1478 45.2712 36.604 46.5591 35.8403 47.6381C30.4136 55.3303 22.1751 54.7734 14.3763 54.2861C7.91977 53.88 3.36084 49.9237 1.42851 43.5309C-1.85763 32.7177 1.41694 23.32 8.16276 14.9201C10.6852 11.7875 13.9251 9.24666 16.7136 6.32293C23.6215 -0.928396 31.1425 -2.44827 40.1794 4.39698V4.40858Z" fill="#FFBF01"/>
<path d="M82.4739 4.39731C78.0654 10.1752 73.7958 15.7674 69.26 21.7193C75.867 23.8889 80.0093 27.8104 80.53 34.9225C81.4326 47.1163 76.0984 53.7295 64.6316 54.2284C50.0986 54.8665 43.3181 49.2627 43.1098 36.4772C42.8899 22.7867 50.6424 13.7138 60.1421 5.13985C67.3971 -1.40375 74.1313 -1.6822 82.4624 4.39731H82.4739Z" fill="#FFBF01"/>
</svg>
