<svg width="19" height="19" viewBox="0 0 19 19" fill="none" xmlns="http://www.w3.org/2000/svg">
<path d="M0.5 18.2605L1.76525 13.6382C0.984499 12.2852 0.57425 10.7515 0.575 9.17873C0.57725 4.26174 4.57849 0.260498 9.49473 0.260498C11.8805 0.261248 14.12 1.1905 15.8045 2.87649C17.4882 4.56249 18.4152 6.80348 18.4145 9.18698C18.4122 14.1047 14.411 18.106 9.49473 18.106C8.00223 18.1052 6.53149 17.731 5.22874 17.02L0.5 18.2605ZM5.44774 15.4052C6.70474 16.1515 7.90473 16.5985 9.49173 16.5992C13.5777 16.5992 16.9062 13.2737 16.9085 9.18548C16.91 5.08899 13.5972 1.76799 9.49773 1.76649C5.40874 1.76649 2.0825 5.09199 2.081 9.17948C2.08025 10.8482 2.56925 12.0977 3.39049 13.405L2.64125 16.141L5.44774 15.4052ZM13.988 11.3072C13.9325 11.2142 13.784 11.1587 13.5605 11.047C13.3377 10.9352 12.242 10.396 12.0372 10.3217C11.8332 10.2475 11.6847 10.21 11.5355 10.4335C11.387 10.6562 10.9595 11.1587 10.8297 11.3072C10.7 11.4557 10.5695 11.4745 10.3467 11.3627C10.124 11.251 9.40548 11.0162 8.55423 10.2565C7.89198 9.66548 7.44423 8.93573 7.31449 8.71223C7.18474 8.48948 7.30099 8.36873 7.41198 8.25773C7.51248 8.15798 7.63473 7.99748 7.74648 7.86698C7.85973 7.73798 7.89648 7.64498 7.97148 7.49573C8.04573 7.34723 8.00898 7.21673 7.95273 7.10498C7.89648 6.99398 7.45098 5.89674 7.26574 5.45049C7.08424 5.01624 6.90049 5.07474 6.76399 5.06799L6.33649 5.06049C6.18799 5.06049 5.94649 5.11599 5.74249 5.33949C5.53849 5.56299 4.96249 6.10149 4.96249 7.19873C4.96249 8.29598 5.76124 9.35573 5.87224 9.50423C5.98399 9.65273 7.44348 11.9042 9.67923 12.8695C10.211 13.099 10.6265 13.2362 10.9497 13.339C11.4837 13.5085 11.9697 13.4845 12.3537 13.4275C12.782 13.3637 13.6722 12.8882 13.8582 12.3677C14.0442 11.8465 14.0442 11.4002 13.988 11.3072Z" fill="black"/>
</svg>
