<svg width="110" height="110" viewBox="0 0 110 110" fill="none" xmlns="http://www.w3.org/2000/svg">
<path d="M0.941406 55.2659C0.941406 85.2416 25.2415 109.542 55.2173 109.542C85.193 109.542 109.493 85.2416 109.493 55.2659V0.990036H55.2173C25.2415 0.990036 0.941406 25.2902 0.941406 55.2659Z" fill="black"/>
<path d="M19.8983 58H23.3927L25.5815 50.0704L27.7703 58H31.2647L34.9703 44.56H31.7447L29.4215 53.968L26.8295 44.56H24.3335L21.7415 53.968L19.4183 44.56H16.1927L19.8983 58ZM41.9548 58.2688C45.814 58.2688 48.9436 55.2352 48.9436 51.28C48.9436 47.3248 45.814 44.2912 41.9548 44.2912C38.0956 44.2912 34.966 47.3248 34.966 51.28C34.966 55.2352 38.0956 58.2688 41.9548 58.2688ZM41.9548 55.2736C39.766 55.2736 38.038 53.68 38.038 51.28C38.038 48.88 39.766 47.2864 41.9548 47.2864C44.1436 47.2864 45.8716 48.88 45.8716 51.28C45.8716 53.68 44.1436 55.2736 41.9548 55.2736ZM57.5468 58H60.8492L57.9884 53.0656C59.4668 52.3168 60.4652 50.8192 60.4652 49.168C60.4652 46.6144 58.4108 44.56 55.8572 44.56H50.4812V58H53.5532V53.584H55.0124L57.5468 58ZM53.5532 47.44H55.8572C56.702 47.44 57.3932 48.1888 57.3932 49.168C57.3932 50.1472 56.702 50.896 55.8572 50.896H53.5532V47.44ZM72.9689 58L68.2457 51.1072L72.7769 44.56H69.2825L65.1737 50.3968V44.56H62.1017V58H65.1737V51.7792L69.4745 58H72.9689ZM77.0005 55.0432V52.6624H81.8005V49.744H77.0005V47.5168H82.2805V44.56H73.9285V58H82.3765V55.0432H77.0005ZM90.9833 58H94.2857L91.4249 53.0656C92.9033 52.3168 93.9017 50.8192 93.9017 49.168C93.9017 46.6144 91.8473 44.56 89.2937 44.56H83.9177V58H86.9897V53.584H88.4489L90.9833 58ZM86.9897 47.44H89.2937C90.1385 47.44 90.8297 48.1888 90.8297 49.168C90.8297 50.1472 90.1385 50.896 89.2937 50.896H86.9897V47.44Z" fill="white"/>
<path d="M18.4264 62.52C19.0366 62.52 19.5422 62.7376 19.9432 63.1728C20.3486 63.6037 20.5512 64.1328 20.5512 64.76C20.5512 65.3872 20.3486 65.9184 19.9432 66.3536C19.5422 66.7845 19.0366 67 18.4264 67H16.6792V62.52H18.4264ZM18.4264 66.4368C18.883 66.4368 19.2563 66.2768 19.5464 65.9568C19.8366 65.6368 19.9816 65.2379 19.9816 64.76C19.9816 64.2821 19.8366 63.8832 19.5464 63.5632C19.2563 63.2432 18.883 63.0832 18.4264 63.0832H17.2744V66.4368H18.4264ZM21.433 63.2176C21.3263 63.2176 21.2367 63.1813 21.1642 63.1088C21.0916 63.0363 21.0554 62.9488 21.0554 62.8464C21.0554 62.744 21.0916 62.6565 21.1642 62.584C21.2367 62.5072 21.3263 62.4688 21.433 62.4688C21.5354 62.4688 21.6228 62.5072 21.6954 62.584C21.7679 62.6565 21.8042 62.744 21.8042 62.8464C21.8042 62.9488 21.7679 63.0363 21.6954 63.1088C21.6228 63.1813 21.5354 63.2176 21.433 63.2176ZM21.1514 67V63.8H21.7082V67H21.1514ZM25.1496 63.8H25.7V66.8656C25.7 67.3392 25.54 67.7061 25.22 67.9664C24.9 68.2309 24.516 68.3632 24.068 68.3632C23.7096 68.3632 23.4003 68.2949 23.14 68.1584C22.8798 68.0261 22.6835 67.8341 22.5512 67.5824L23.0376 67.3072C23.2126 67.6656 23.5603 67.8448 24.0808 67.8448C24.4136 67.8448 24.6739 67.7573 24.8616 67.5824C25.0536 67.4075 25.1496 67.1685 25.1496 66.8656V66.4112C24.868 66.8379 24.467 67.0512 23.9464 67.0512C23.4899 67.0512 23.1038 66.8891 22.788 66.5648C22.4723 66.2405 22.3144 65.8459 22.3144 65.3808C22.3144 64.9157 22.4723 64.5232 22.788 64.2032C23.1038 63.8789 23.4899 63.7168 23.9464 63.7168C24.4712 63.7168 24.8723 63.928 25.1496 64.3504V63.8ZM23.1976 66.1936C23.4152 66.4112 23.6862 66.52 24.0104 66.52C24.3347 66.52 24.6056 66.4112 24.8232 66.1936C25.0408 65.976 25.1496 65.7051 25.1496 65.3808C25.1496 65.0608 25.0408 64.792 24.8232 64.5744C24.6056 64.3568 24.3347 64.248 24.0104 64.248C23.6862 64.248 23.4152 64.3568 23.1976 64.5744C22.98 64.792 22.8712 65.0608 22.8712 65.3808C22.8712 65.7051 22.98 65.976 23.1976 66.1936ZM26.7612 63.2176C26.6546 63.2176 26.565 63.1813 26.4924 63.1088C26.4199 63.0363 26.3836 62.9488 26.3836 62.8464C26.3836 62.744 26.4199 62.6565 26.4924 62.584C26.565 62.5072 26.6546 62.4688 26.7612 62.4688C26.8636 62.4688 26.9511 62.5072 27.0236 62.584C27.0962 62.6565 27.1324 62.744 27.1324 62.8464C27.1324 62.9488 27.0962 63.0363 27.0236 63.1088C26.9511 63.1813 26.8636 63.2176 26.7612 63.2176ZM26.4796 67V63.8H27.0364V67H26.4796ZM29.5627 64.3376H28.7115V66.072C28.7115 66.2299 28.7413 66.3429 28.8011 66.4112C28.8651 66.4752 28.9611 66.5093 29.0891 66.5136C29.2171 66.5136 29.3749 66.5093 29.5627 66.5008V67C29.0763 67.064 28.72 67.0256 28.4939 66.8848C28.2677 66.7397 28.1547 66.4688 28.1547 66.072V64.3376H27.5211V63.8H28.1547V63.0704L28.7115 62.904V63.8H29.5627V64.3376ZM32.645 63.8H33.2018V67H32.645V66.4496C32.3676 66.872 31.9644 67.0832 31.4354 67.0832C30.9874 67.0832 30.6055 66.9211 30.2898 66.5968C29.974 66.2683 29.8162 65.8693 29.8162 65.4C29.8162 64.9307 29.974 64.5339 30.2898 64.2096C30.6055 63.8811 30.9874 63.7168 31.4354 63.7168C31.9644 63.7168 32.3676 63.928 32.645 64.3504V63.8ZM31.5058 66.5456C31.83 66.5456 32.101 66.4368 32.3186 66.2192C32.5362 65.9973 32.645 65.7243 32.645 65.4C32.645 65.0757 32.5362 64.8048 32.3186 64.5872C32.101 64.3653 31.83 64.2544 31.5058 64.2544C31.1858 64.2544 30.917 64.3653 30.6994 64.5872C30.4818 64.8048 30.373 65.0757 30.373 65.4C30.373 65.7243 30.4818 65.9973 30.6994 66.2192C30.917 66.4368 31.1858 66.5456 31.5058 66.5456ZM33.9814 67V62.328H34.5382V67H33.9814ZM39.8676 67L39.5028 65.9952H37.4868L37.122 67H36.4884L38.1588 62.52H38.8308L40.5012 67H39.8676ZM37.6916 65.4384H39.298L38.4916 63.2304L37.6916 65.4384ZM43.4891 63.8H44.0395V66.8656C44.0395 67.3392 43.8795 67.7061 43.5595 67.9664C43.2395 68.2309 42.8555 68.3632 42.4075 68.3632C42.0491 68.3632 41.7398 68.2949 41.4795 68.1584C41.2193 68.0261 41.023 67.8341 40.8907 67.5824L41.3771 67.3072C41.5521 67.6656 41.8998 67.8448 42.4203 67.8448C42.7531 67.8448 43.0134 67.7573 43.2011 67.5824C43.3931 67.4075 43.4891 67.1685 43.4891 66.8656V66.4112C43.2075 66.8379 42.8065 67.0512 42.2859 67.0512C41.8294 67.0512 41.4433 66.8891 41.1275 66.5648C40.8118 66.2405 40.6539 65.8459 40.6539 65.3808C40.6539 64.9157 40.8118 64.5232 41.1275 64.2032C41.4433 63.8789 41.8294 63.7168 42.2859 63.7168C42.8107 63.7168 43.2118 63.928 43.4891 64.3504V63.8ZM41.5371 66.1936C41.7547 66.4112 42.0257 66.52 42.3499 66.52C42.6742 66.52 42.9451 66.4112 43.1627 66.1936C43.3803 65.976 43.4891 65.7051 43.4891 65.3808C43.4891 65.0608 43.3803 64.792 43.1627 64.5744C42.9451 64.3568 42.6742 64.248 42.3499 64.248C42.0257 64.248 41.7547 64.3568 41.5371 64.5744C41.3195 64.792 41.2107 65.0608 41.2107 65.3808C41.2107 65.7051 41.3195 65.976 41.5371 66.1936ZM45.2095 65.656C45.265 65.9419 45.3951 66.1637 45.5999 66.3216C45.809 66.4795 46.065 66.5584 46.3679 66.5584C46.7903 66.5584 47.0975 66.4027 47.2895 66.0912L47.7631 66.36C47.4517 66.8421 46.9823 67.0832 46.3551 67.0832C45.8474 67.0832 45.4335 66.9253 45.1135 66.6096C44.7978 66.2896 44.6399 65.8864 44.6399 65.4C44.6399 64.9179 44.7957 64.5168 45.1071 64.1968C45.4186 63.8768 45.8218 63.7168 46.3167 63.7168C46.7861 63.7168 47.1679 63.8832 47.4623 64.216C47.761 64.5445 47.9103 64.9413 47.9103 65.4064C47.9103 65.4875 47.9039 65.5707 47.8911 65.656H45.2095ZM46.3167 64.2416C46.0181 64.2416 45.7706 64.3269 45.5743 64.4976C45.3781 64.664 45.2565 64.888 45.2095 65.1696H47.3471C47.3002 64.8667 47.1807 64.6363 46.9887 64.4784C46.7967 64.3205 46.5727 64.2416 46.3167 64.2416ZM50.08 63.7168C50.4554 63.7168 50.7562 63.8363 50.9824 64.0752C51.2085 64.3099 51.3216 64.6299 51.3216 65.0352V67H50.7648V65.0672C50.7648 64.8069 50.6944 64.6064 50.5536 64.4656C50.4128 64.3205 50.2186 64.248 49.9712 64.248C49.6938 64.248 49.4698 64.3355 49.2992 64.5104C49.1285 64.6811 49.0432 64.9456 49.0432 65.304V67H48.4864V63.8H49.0432V64.2608C49.2693 63.8981 49.6149 63.7168 50.08 63.7168ZM53.5389 67.0832C53.0567 67.0832 52.6557 66.9232 52.3357 66.6032C52.0157 66.2789 51.8557 65.8779 51.8557 65.4C51.8557 64.9221 52.0157 64.5232 52.3357 64.2032C52.6557 63.8789 53.0567 63.7168 53.5389 63.7168C53.8546 63.7168 54.1383 63.7936 54.3901 63.9472C54.6418 64.0965 54.8295 64.2992 54.9533 64.5552L54.4861 64.824C54.405 64.6533 54.2791 64.5168 54.1085 64.4144C53.9421 64.312 53.7522 64.2608 53.5389 64.2608C53.2189 64.2608 52.9501 64.3696 52.7325 64.5872C52.5191 64.8048 52.4125 65.0757 52.4125 65.4C52.4125 65.72 52.5191 65.9888 52.7325 66.2064C52.9501 66.424 53.2189 66.5328 53.5389 66.5328C53.7522 66.5328 53.9442 66.4837 54.1149 66.3856C54.2855 66.2832 54.4157 66.1467 54.5053 65.976L54.9789 66.2512C54.8423 66.5029 54.6461 66.7056 54.3901 66.8592C54.1341 67.0085 53.8503 67.0832 53.5389 67.0832ZM57.7045 63.8H58.2997L56.9941 67.1984C56.8575 67.5611 56.6655 67.8363 56.4181 68.024C56.1749 68.216 55.8933 68.3013 55.5733 68.28V67.7616C55.9658 67.7915 56.2538 67.5739 56.4373 67.1088L56.4949 66.9872L55.0997 63.8H55.6949L56.7829 66.3088L57.7045 63.8Z" fill="white"/>
</svg>
